<svg width="100" height="100" viewBox="0 0 100 100" fill="none" xmlns="http://www.w3.org/2000/svg">
<path d="M60.876 30.9939C66.9477 37.0657 66.9477 46.91 60.876 52.9818C59.6973 54.1605 58.229 55.2569 56.6897 56.3335M59.3117 29.6238C53.2164 24.9629 44.4624 25.4196 38.8881 30.9939C37.6448 32.2372 36.6561 33.6387 35.922 35.1336M35.0559 37.2956C33.3663 42.6496 34.6437 48.7374 38.8881 52.9818C41.8421 55.9357 46.759 59.0322 49.4912 61.7644C50.7352 60.5205 52.3 59.3686 53.9298 58.2357" stroke="#F4F4F4"/>
<path d="M47.5596 35.9455C47.3198 35.1939 46.7848 34.4683 45.7111 33.9931C44.9846 33.9931 43.8516 34.1945 43.4623 34.272C44.5147 35.1707 46.2733 36.9682 45.4084 37.8979C44.3273 39.06 42.9866 37.619 41.819 35.9455L41.3865 38.3628C41.6748 39.4164 42.9434 41.3192 45.7111 40.5011C47.3572 42.1722 50.1089 45.2169 51.7063 47.0091M47.712 37.4912C47.6851 37.8218 47.6286 38.1211 47.5707 38.3628C49.4303 40.3307 53.3744 44.5175 54.2739 45.5216C56.2632 44.9172 57.5606 46.1724 58.0363 47.0091C58.512 47.8458 58.4688 49.101 58.0363 49.9842C57.6471 49.3334 55.5713 46.3583 54.4036 47.6599C53.4695 48.7012 55.528 50.8209 56.4794 51.7041C56.0758 51.7971 55.0956 51.9831 54.4036 51.9831C52.5953 51.2541 52.121 49.8442 52.1237 48.7349" stroke="#F4F4F4"/>
<path d="M45.8953 49.5114L48.8826 46.538L46.5103 43.9894L40.8871 50.2665V51.4464L41.9414 52.4847H42.9079L44.6652 50.7357" stroke="#F4F4F4"/>
<path d="M53.7917 37.4914C54.1248 37.005 54.4151 36.4969 54.6099 35.9983C55.2722 34.3028 56.7349 33.6221 57.3835 33.4937L58.377 34.746C58.3269 35.0002 58.2243 35.3561 58.0617 35.7424M53.1299 38.3702C52.48 39.164 51.7988 39.8282 51.3809 40.1887L52.5001 41.5015C53.5001 40.5015 54.9411 38.5318 56.2658 37.8767C56.8464 37.5896 57.2945 37.1008 57.6274 36.5773" stroke="#F4F4F4"/>
<path d="M68.5373 65.7427C67.5416 64.5139 65.9877 63.7672 64.2886 63.8688C61.491 64.0362 59.3588 66.4398 59.5262 69.2373C59.5982 70.442 60.085 71.5234 60.8393 72.3508M69.2346 66.8832C69.4723 67.4211 69.6199 68.0098 69.6571 68.6313C69.8244 71.4288 67.6922 73.8324 64.8946 73.9997C63.7962 74.0655 62.7586 73.7767 61.8932 73.2323" stroke="#F4F4F4"/>
<path d="M68.7435 71.2263L70.7085 73.1135M70.7085 73.1135L71.0759 72.706L73.91 75.428M70.7085 73.1135L69.8982 74.1644M69.8982 74.1644L69.6177 74.5281C69.9984 74.9036 70.4898 75.3807 71.0076 75.8809M69.8982 74.1644L67.971 72.3134M71.7515 76.5981C72.9068 77.7102 73.9965 78.7535 74.1169 78.8855C74.3837 79.1779 75.1382 79.287 75.6029 78.7194C76.0676 78.1519 75.9529 77.4262 75.7239 77.1701L74.8169 76.299" stroke="#F4F4F4"/>
<path d="M49.3669 76.4959V61.6291M49.3669 76.4959L58.1224 73.027M49.3669 76.4959L43.2111 74.5M33.3455 71.3013L16 76.4959L18.2178 69.3034M33.3455 71.3013L36.1839 50.2313M33.3455 71.3013L38.6678 73.027M62.4277 51.718L64.0691 61.6291M34.7088 43.7891L28.5 46.2739M65.5207 44.5253L73.8624 47.7261L77 56.7562M73.9803 72.5314L83.3959 75.1639L78.822 62M20.4357 62.111L24.8714 47.7261L26.6857 47" stroke="#F4F4F4"/>
</svg>
