<svg width="100" height="100" viewBox="0 0 100 100" fill="none" xmlns="http://www.w3.org/2000/svg">
<path d="M29 64.2846V53M29 64.2846V66.8923M29 64.2846H57.5M71.8571 64.2846V61.3923M71.8571 64.2846V68.2132M71.8571 64.2846H62M29 46V31.5703C29 29.9135 30.3431 28.5703 32 28.5703H40M71.8571 61.3923V58.5V38.5V61.3923ZM71.8571 31.5352V31.5352C71.8571 29.8977 70.5297 28.5703 68.8923 28.5703H46M71.8571 72.1417V76.9989C71.8571 78.6557 70.514 79.9989 68.8571 79.9989H41.5M29 69.5V76.9989C29 78.6557 30.3431 79.9989 32 79.9989H36" stroke="#F4F4F4"/>
<path d="M34 28.7429C34 25.7143 35.3029 25.1429 39.8286 25.1429C43.8057 25.1429 44.5143 25.1429 44.8 25.1429C44.7536 24.3999 44.8298 23.4116 45.2471 22.5M67.2571 28.7429C67.12 25.04 64.3571 25.1429 62.4571 25.1429H60.2286M58 25.1429H55.4286C55.2 23.3143 54.7429 20 49.9429 20C48.382 20 47.276 20.3769 46.5 20.9466" stroke="#F4F4F4"/>
<path d="M51.5571 23.6006C51.5571 24.3659 50.9367 24.9863 50.1714 24.9863C49.4061 24.9863 48.7857 24.3659 48.7857 23.6006C48.7857 22.8352 49.4061 22.2148 50.1714 22.2148C50.9367 22.2148 51.5571 22.8352 51.5571 23.6006Z" stroke="#F4F4F4"/>
<path d="M37.5978 64.2863C37.2817 56.7843 39.799 55.3477 45.9033 54.9754M45.9033 54.9754C46.9897 54.42 48.2571 53.494 48.076 52.1976C47.1707 50.9011 46.4465 50.9016 45.9033 47.5675C45.3601 47.5057 44.1289 46.6419 44.2738 45.1603C44.4186 43.6786 45.3601 44.0486 45.3601 44.0486C45.0584 42.9992 44.6359 40.7524 45.3601 40.1597L44.4548 40.7149C44.4548 39.8506 44.7445 38.122 45.9033 38.122C47.0621 38.122 45.6619 37.5669 45.1791 37.1965C45.5412 36.8261 47.2069 36.0107 48.076 36.4552C48.9451 36.8997 48.1364 36.0851 47.895 35.7148C48.1967 35.7147 49.5607 36.0107 50.4298 36.4552C51.5161 37.0108 55.6805 36.6414 56.4047 39.2337C56.9841 41.3076 56.0426 43.123 56.0426 44.0486C56.9479 43.6786 57.129 44.9751 57.129 44.9751C57.129 44.9751 57.31 46.8271 55.8616 47.5675C55.8616 49.2348 55.1373 50.7164 53.8699 52.1976C53.7055 52.3897 53.939 53.6334 54.5139 54.39M45.9033 54.9754L47.5439 57.9016L49.2805 57.5026M55.4995 54.9754C58.5861 55.5073 64.5853 54.9754 63.9538 64.2863M55.4995 54.9754C55.11 54.9083 54.7741 54.7326 54.5139 54.39M55.4995 54.9754L54.1746 57.9016L52.5959 57.5026M47.2281 54.39L51.0171 57.1035M51.0171 57.1035L49.2805 57.5026M51.0171 57.1035L52.5959 57.5026M51.0171 57.1035L52.7655 55.7468L54.5139 54.39M49.2805 57.5026L50.3856 59.1785M50.3856 59.1785L49.4501 64.0631M50.3856 59.1785C50.6488 59.2317 51.2697 59.3062 51.6486 59.1785M52.5959 57.5026L51.6486 59.1785M51.6486 59.1785L52.7655 64.0631" stroke="#F4F4F4"/>
<path d="M34.6589 69.5723C35.1023 69.5723 35.4733 69.6143 35.7719 69.6983C36.0753 69.7776 36.3016 69.9106 36.4509 70.0973C36.6049 70.2793 36.6819 70.5266 36.6819 70.8393C36.6819 71.026 36.6516 71.1963 36.5909 71.3503C36.5303 71.5043 36.4416 71.6303 36.3249 71.7283C36.2129 71.8263 36.0753 71.8893 35.9119 71.9173V71.9523C36.0799 71.985 36.2316 72.0433 36.3669 72.1273C36.5023 72.2113 36.6096 72.3326 36.6889 72.4913C36.7683 72.65 36.8079 72.86 36.8079 73.1213C36.8079 73.4246 36.7333 73.686 36.5839 73.9053C36.4393 74.12 36.2293 74.2856 35.9539 74.4023C35.6786 74.5143 35.3519 74.5703 34.9739 74.5703H33.1049V69.5723H34.6589ZM34.7779 71.5533C35.0859 71.5533 35.2983 71.5043 35.4149 71.4063C35.5363 71.3083 35.5969 71.166 35.5969 70.9793C35.5969 70.788 35.5269 70.6503 35.3869 70.5663C35.2469 70.4823 35.0253 70.4403 34.7219 70.4403H34.1619V71.5533H34.7779ZM34.1619 72.3933V73.6953H34.8549C35.1723 73.6953 35.3939 73.6346 35.5199 73.5133C35.6459 73.3873 35.7089 73.2216 35.7089 73.0163C35.7089 72.8903 35.6809 72.7806 35.6249 72.6873C35.5736 72.594 35.4826 72.5216 35.3519 72.4703C35.2213 72.419 35.0439 72.3933 34.8199 72.3933H34.1619ZM38.7671 74.5703H37.7241V69.2503H38.7671V74.5703ZM43.3639 70.7483V74.5703H42.5659L42.4259 74.0803H42.3699C42.2905 74.211 42.1879 74.3183 42.0619 74.4023C41.9405 74.4816 41.8052 74.54 41.6559 74.5773C41.5065 74.6193 41.3525 74.6403 41.1939 74.6403C40.9232 74.6403 40.6852 74.5913 40.4799 74.4933C40.2745 74.3953 40.1159 74.2436 40.0039 74.0383C39.8919 73.833 39.8359 73.567 39.8359 73.2403V70.7483H40.8789V72.9813C40.8789 73.252 40.9279 73.4573 41.0259 73.5973C41.1239 73.7373 41.2802 73.8073 41.4949 73.8073C41.7095 73.8073 41.8752 73.7583 41.9919 73.6603C42.1132 73.5623 42.1972 73.42 42.2439 73.2333C42.2952 73.0466 42.3209 72.818 42.3209 72.5473V70.7483H43.3639ZM46.0325 70.6783C46.3871 70.6783 46.6905 70.746 46.9425 70.8813C47.1991 71.0166 47.3975 71.2126 47.5375 71.4693C47.6775 71.726 47.7475 72.041 47.7475 72.4143V72.9183H45.2835C45.2928 73.2123 45.3791 73.4433 45.5425 73.6113C45.7105 73.7793 45.9415 73.8633 46.2355 73.8633C46.4828 73.8633 46.7068 73.84 46.9075 73.7933C47.1081 73.742 47.3158 73.665 47.5305 73.5623V74.3673C47.3438 74.4606 47.1455 74.5283 46.9355 74.5703C46.7301 74.617 46.4805 74.6403 46.1865 74.6403C45.8038 74.6403 45.4655 74.5703 45.1715 74.4303C44.8775 74.2856 44.6465 74.0686 44.4785 73.7793C44.3105 73.49 44.2265 73.126 44.2265 72.6873C44.2265 72.2393 44.3011 71.8683 44.4505 71.5743C44.6045 71.2756 44.8168 71.0516 45.0875 70.9023C45.3581 70.753 45.6731 70.6783 46.0325 70.6783ZM46.0395 71.4203C45.8388 71.4203 45.6708 71.4856 45.5355 71.6163C45.4048 71.747 45.3278 71.95 45.3045 72.2253H46.7675C46.7675 72.0713 46.7395 71.9336 46.6835 71.8123C46.6321 71.691 46.5528 71.5953 46.4455 71.5253C46.3381 71.4553 46.2028 71.4203 46.0395 71.4203ZM49.6362 70.3353C49.6362 70.522 49.6292 70.7016 49.6152 70.8743C49.6059 71.047 49.5965 71.1683 49.5872 71.2383H49.6432C49.7272 71.1076 49.8252 71.0026 49.9372 70.9233C50.0492 70.8393 50.1729 70.7786 50.3082 70.7413C50.4482 70.6993 50.5952 70.6783 50.7492 70.6783C51.0245 70.6783 51.2649 70.7273 51.4702 70.8253C51.6755 70.9233 51.8342 71.075 51.9462 71.2803C52.0629 71.4856 52.1212 71.7516 52.1212 72.0783V74.5703H51.0782V72.3373C51.0782 72.062 51.0269 71.8566 50.9242 71.7213C50.8262 71.5813 50.6722 71.5113 50.4622 71.5113C50.2522 71.5113 50.0865 71.5603 49.9652 71.6583C49.8485 71.7563 49.7645 71.8986 49.7132 72.0853C49.6619 72.272 49.6362 72.5006 49.6362 72.7713V74.5703H48.5932V69.2503H49.6362V70.3353ZM54.7618 70.6713C55.2751 70.6713 55.6671 70.7833 55.9378 71.0073C56.2131 71.2266 56.3508 71.565 56.3508 72.0223V74.5703H55.6228L55.4198 74.0523H55.3918C55.2845 74.1876 55.1725 74.2996 55.0558 74.3883C54.9438 74.477 54.8131 74.54 54.6638 74.5773C54.5191 74.6193 54.3395 74.6403 54.1248 74.6403C53.9008 74.6403 53.6978 74.5983 53.5158 74.5143C53.3385 74.4256 53.1985 74.2926 53.0958 74.1153C52.9931 73.9333 52.9418 73.7046 52.9418 73.4293C52.9418 73.0233 53.0841 72.7246 53.3688 72.5333C53.6535 72.3373 54.0805 72.23 54.6498 72.2113L55.3148 72.1903V72.0223C55.3148 71.8216 55.2611 71.6746 55.1538 71.5813C55.0511 71.488 54.9065 71.4413 54.7198 71.4413C54.5331 71.4413 54.3511 71.4693 54.1738 71.5253C53.9965 71.5766 53.8191 71.642 53.6418 71.7213L53.2988 71.0143C53.5041 70.907 53.7305 70.823 53.9778 70.7623C54.2298 70.7016 54.4911 70.6713 54.7618 70.6713ZM54.9088 72.8133C54.5728 72.8226 54.3395 72.8833 54.2088 72.9953C54.0781 73.1073 54.0128 73.2543 54.0128 73.4363C54.0128 73.595 54.0595 73.7093 54.1528 73.7793C54.2461 73.8446 54.3675 73.8773 54.5168 73.8773C54.7408 73.8773 54.9298 73.812 55.0838 73.6813C55.2378 73.546 55.3148 73.357 55.3148 73.1143V72.7993L54.9088 72.8133ZM59.5884 70.6783C59.9991 70.6783 60.3281 70.7903 60.5754 71.0143C60.8227 71.2336 60.9464 71.5883 60.9464 72.0783V74.5703H59.9034V72.3373C59.9034 72.062 59.8544 71.8566 59.7564 71.7213C59.6584 71.5813 59.5021 71.5113 59.2874 71.5113C58.9701 71.5113 58.7531 71.621 58.6364 71.8403C58.5197 72.055 58.4614 72.3653 58.4614 72.7713V74.5703H57.4184V70.7483H58.2164L58.3564 71.2383H58.4124C58.4964 71.1076 58.5991 71.0026 58.7204 70.9233C58.8417 70.8393 58.9771 70.7786 59.1264 70.7413C59.2757 70.6993 59.4297 70.6783 59.5884 70.6783ZM63.23 74.6403C62.8053 74.6403 62.4577 74.4746 62.187 74.1433C61.921 73.8073 61.788 73.315 61.788 72.6663C61.788 72.013 61.9233 71.5183 62.194 71.1823C62.4647 70.8463 62.8193 70.6783 63.258 70.6783C63.44 70.6783 63.601 70.704 63.741 70.7553C63.881 70.802 64 70.8673 64.098 70.9513C64.2007 71.0353 64.287 71.131 64.357 71.2383H64.392C64.378 71.1636 64.3617 71.0563 64.343 70.9163C64.3243 70.7716 64.315 70.6246 64.315 70.4753V69.2503H65.358V74.5703H64.56L64.357 74.0733H64.315C64.2497 74.176 64.1657 74.2716 64.063 74.3603C63.965 74.4443 63.8483 74.512 63.713 74.5633C63.5777 74.6146 63.4167 74.6403 63.23 74.6403ZM63.594 73.8073C63.8833 73.8073 64.0863 73.7233 64.203 73.5553C64.3197 73.3826 64.3803 73.126 64.385 72.7853V72.6733C64.385 72.3 64.3267 72.0153 64.21 71.8193C64.098 71.6233 63.888 71.5253 63.58 71.5253C63.3513 71.5253 63.1717 71.6256 63.041 71.8263C62.9103 72.0223 62.845 72.307 62.845 72.6803C62.845 73.0536 62.9103 73.336 63.041 73.5273C63.1717 73.714 63.356 73.8073 63.594 73.8073ZM69.1157 73.4363C69.1157 73.693 69.055 73.9123 68.9337 74.0943C68.8123 74.2716 68.6303 74.407 68.3877 74.5003C68.145 74.5936 67.844 74.6403 67.4847 74.6403C67.2187 74.6403 66.99 74.6216 66.7987 74.5843C66.6073 74.5516 66.416 74.4956 66.2247 74.4163V73.5553C66.43 73.6486 66.6517 73.7256 66.8897 73.7863C67.1277 73.847 67.3377 73.8773 67.5197 73.8773C67.725 73.8773 67.8697 73.847 67.9537 73.7863C68.0423 73.7256 68.0867 73.6463 68.0867 73.5483C68.0867 73.483 68.068 73.4246 68.0307 73.3733C67.998 73.322 67.9233 73.2636 67.8067 73.1983C67.69 73.133 67.508 73.049 67.2607 72.9463C67.0227 72.8436 66.8267 72.7433 66.6727 72.6453C66.5187 72.5426 66.4043 72.4213 66.3297 72.2813C66.255 72.1366 66.2177 71.957 66.2177 71.7423C66.2177 71.3876 66.3553 71.1216 66.6307 70.9443C66.906 70.767 67.2723 70.6783 67.7297 70.6783C67.9677 70.6783 68.194 70.7016 68.4087 70.7483C68.6233 70.795 68.845 70.872 69.0737 70.9793L68.7587 71.7283C68.6327 71.6723 68.5113 71.6233 68.3947 71.5813C68.278 71.5393 68.1637 71.5066 68.0517 71.4833C67.9443 71.46 67.8323 71.4483 67.7157 71.4483C67.5617 71.4483 67.445 71.4693 67.3657 71.5113C67.291 71.5533 67.2537 71.6163 67.2537 71.7003C67.2537 71.761 67.2723 71.817 67.3097 71.8683C67.3517 71.915 67.4287 71.9663 67.5407 72.0223C67.6573 72.0783 67.8277 72.153 68.0517 72.2463C68.271 72.335 68.46 72.4283 68.6187 72.5263C68.7773 72.6196 68.8987 72.7386 68.9827 72.8833C69.0713 73.0233 69.1157 73.2076 69.1157 73.4363Z" fill="#F4F4F4"/>
</svg>
