<svg width="100" height="100" viewBox="0 0 100 100" fill="none" xmlns="http://www.w3.org/2000/svg">
<path fill-rule="evenodd" clip-rule="evenodd" d="M25.5182 22.0357C25.293 22.0357 25.049 22.028 24.7854 22.0196L24.7691 22.019C24.513 22.0108 24.2405 22.0021 23.9653 22.0003C23.4066 21.9968 22.8064 22.0214 22.251 22.1484C21.6939 22.2758 21.1452 22.5145 20.73 22.9668C20.3086 23.4259 20.0737 24.0513 20.0488 24.855C20.0153 25.933 20.0019 31.1051 20 37.9546L21 37.9549C21.0011 33.8962 21.0063 30.4368 21.0172 28.0687H42.0353V27.0687H21.0225C21.0293 25.9766 21.0378 25.2233 21.0483 24.886C21.0675 24.2666 21.2413 23.8886 21.4667 23.643C21.6982 23.3908 22.0344 23.2237 22.4739 23.1232C22.9153 23.0223 23.4236 22.9969 23.959 23.0003C24.2212 23.002 24.4826 23.0104 24.7421 23.0187L24.7533 23.019C25.0137 23.0274 25.2742 23.0357 25.5184 23.0357L25.5182 22.0357ZM20.0018 45.5558C20.0071 53.6747 20.022 62.749 20.037 70.012C20.0409 71.8807 20.0447 73.6294 20.0485 75.2112C19.9891 75.8136 20.1181 76.6863 20.7001 77.4228C21.3081 78.1922 22.3506 78.7385 23.9721 78.7385V77.7385C22.5897 77.7385 21.8652 77.2843 21.4847 76.8028C21.0879 76.3006 21.0016 75.689 21.0455 75.2914L21.0486 75.2635L21.0485 75.2354C21.0451 73.7888 21.0416 72.2019 21.038 70.511H44.3153V69.511H21.036C21.0213 62.3344 21.007 53.4886 21.0018 45.5552L20.0018 45.5558ZM52.4026 65.2542C52.3878 66.6037 52.373 68.3436 52.3671 70.0127C52.3592 72.2559 52.3676 74.351 52.4125 75.2105C52.4687 76.2848 51.8424 77.1 51.1543 77.6505C50.4634 78.2034 49.6321 78.5573 49.0696 78.7191L49.0019 78.7385H48.9314H48.9015H48.8716H48.8415H48.8114H48.7812H48.7508H48.7204H48.6899H48.6593H48.6287H48.5979H48.567H48.5361H48.505H48.4739H48.4427H48.4114H48.38H48.3485H48.317H48.2853H48.2536H48.2218H48.1899H48.1579H48.1258H48.0937H48.0614H48.0291H47.9967H47.9642H47.9316H47.899H47.8662H47.8334H47.8005H47.7675H47.7345H47.7013H47.6681H47.6348H47.6014H47.568H47.5344H47.5008H47.4671H47.4334H47.3995H47.3656H47.3316H47.2975H47.2633H47.2291H47.1948H47.1604H47.126H47.0914H47.0568H47.0222H46.9874H46.9526H46.9177H46.8827H46.8477H46.8126H46.7774H46.7421H46.7068H46.6714H46.6359H46.6004H46.5648H46.5291H46.4934H46.4576H46.4217H46.3857H46.3497H46.3136H46.2775H46.2413H46.205H46.1687H46.1322H46.0958H46.0592H46.0226H45.9859H45.9492H45.9124H45.8755H45.8386H45.8016H45.7646H45.7275H45.6903H45.6531H45.6158H45.5784H45.541H45.5035H45.466H45.4284H45.3907H45.353H45.3153H45.2774H45.2395H45.2016H45.1636H45.1255H45.0874H45.0493H45.011H44.9728H44.9344H44.896H44.8576H44.8191H44.7805H44.7419H44.7033H44.6646H44.6258H44.587H44.5481H44.5092H44.4702H44.4312H44.3922H44.353H44.3139H44.2746H44.2354H44.1961H44.1567H44.1173H44.0778H44.0383H43.9988H43.9592H43.9195H43.8798H43.8401H43.8003H43.7605H43.7206H43.6807H43.6407H43.6007H43.5606H43.5205H43.4804H43.4402H43.4H43.3597H43.3194H43.2791H43.2387H43.1983H43.1578H43.1173H43.0768H43.0362H42.9955H42.9549H42.9142H42.8734H42.8327H42.7919H42.751H42.7101H42.6692H42.6282H42.5872H42.5462H42.5051H42.464H42.4229H42.3817H42.3405H42.2993H42.258H42.2167H42.1754H42.134H42.0926H42.0512H42.0097H41.9683H41.9267H41.8852H41.8436H41.802H41.7604H41.7187H41.677H41.6353H41.5935H41.5517H41.5099H41.4681H41.4262H41.3844H41.3425H41.3005H41.2586H41.2166H41.1746H41.1325H41.0905H41.0484H41.0063H40.9642H40.922H40.8798H40.8377H40.7954H40.7532H40.7109H40.6687H40.6264H40.5841H40.5417H40.4994H40.457H40.4146H40.3722H40.3298H40.2873H40.2448H40.2024H40.1599H40.1174H40.0748H40.0323H39.9897H39.9472H39.9046H39.862H39.8193H39.7767H39.7341H39.6914H39.6487H39.6061H39.5634H39.5207H39.478H39.4352H39.3925H39.3497H39.307H39.2642H39.2214H39.1786H39.1359H39.0931H39.0502H39.0074H38.9646H38.9218H38.8789H38.8361H38.7932H38.7504H38.7075H38.6646H38.6218H38.5789H38.536H38.4931H38.4502H38.4074H38.3645H38.3216H38.2787H38.2358H38.1929H38.15H38.1071H38.0642H38.0213H37.9784H37.9354H37.8925H37.8496H37.8067H37.7639H37.721H37.6781H37.6352H37.5923H37.5494H37.5065H37.4637H37.4208H37.3779H37.3351H37.2922H37.2494H37.2065H37.1637H37.1208H37.078H37.0352H36.9924H36.9496H36.9068H36.864H36.8213H36.7785H36.7357H36.693H36.6503H36.6076H36.5648H36.5221H36.4795H36.4368H36.3941H36.3515H36.3088H36.2662H36.2236H36.181H36.1384H36.0959H36.0533H36.0108H35.9682H35.9257H35.8832H35.8408H35.7983H35.7559H35.7135H35.6711H35.6287H35.5863H35.544H35.5016H35.4593H35.417H35.3748H35.3325H35.2903H35.2481H35.2059H35.1638H35.1216H35.0795H35.0374H34.9953H34.9533H34.9113H34.8693H34.8273H34.7854H34.7434H34.7015H34.6597H34.6178H34.576H34.5342H34.4925H34.4507H34.409H34.3673H34.3257H34.284H34.2425H34.2009H34.1594H34.1178H34.0764H34.0349H33.9935H33.9521H33.9108H33.8695H33.8282H33.7869H33.7457H33.7045H33.6634H33.6223H33.5812H33.5401H33.4991H33.4581H33.4172H33.3763H33.3354H33.2946H33.2538H33.213H33.1723H33.1316H33.091H33.0504H33.0098H32.9693H32.9288H32.8883H32.8479H32.8076H32.7672H32.727H32.6867H32.6465H32.6063H32.5662H32.5262H32.4861H32.4461H32.4062H32.3663H32.3265H32.2866H32.2469H32.2072H32.1675H32.1279H32.0883H32.0488H32.0093H31.9698H31.9304H31.8911H31.8518H31.8126H31.7734H31.7342H31.6951H31.6561H31.6171H31.5781H31.5393H31.5004H31.4616H31.4229H31.3842H31.3456H31.307H31.2685H31.23H31.1916H31.1532H31.1149H31.0767H31.0385H31.0003H30.9622H30.9242H30.8862H30.8483H30.8105H30.7727H30.7349H30.6972H30.6596H30.622H30.5845H30.5471H30.5097H30.4724H30.4351H30.3979H30.3608H30.3237H30.2867H30.2497H30.2128H30.176H30.1392H30.1025H30.0659H30.0293H29.9928H29.9563H29.92H29.8836H29.8474H29.8112H29.7751H29.739H29.7031H29.6672H29.6313H29.5955H29.5598H29.5242H29.4886H29.4531H29.4177H29.3823H29.347H29.3118H29.2766H29.2416H29.2066H29.1716H29.1368H29.102H29.0673H29.0326H28.9981H28.9636H28.9291H28.8948H28.8605V77.7385H28.8948H28.9291H28.9636H28.9981H29.0326H29.0673H29.102H29.1368H29.1716H29.2066H29.2416H29.2766H29.3118H29.347H29.3823H29.4177H29.4531H29.4886H29.5242H29.5598H29.5955H29.6313H29.6672H29.7031H29.739H29.7751H29.8112H29.8474H29.8836H29.92H29.9563H29.9928H30.0293H30.0659H30.1025H30.1392H30.176H30.2128H30.2497H30.2867H30.3237H30.3608H30.3979H30.4351H30.4724H30.5097H30.5471H30.5845H30.622H30.6596H30.6972H30.7349H30.7727H30.8105H30.8483H30.8862H30.9242H30.9622H31.0003H31.0385H31.0767H31.1149H31.1532H31.1916H31.23H31.2685H31.307H31.3456H31.3842H31.4229H31.4616H31.5004H31.5393H31.5781H31.6171H31.6561H31.6951H31.7342H31.7734H31.8126H31.8518H31.8911H31.9304H31.9698H32.0093H32.0488H32.0883H32.1279H32.1675H32.2072H32.2469H32.2866H32.3265H32.3663H32.4062H32.4461H32.4861H32.5262H32.5662H32.6063H32.6465H32.6867H32.727H32.7672H32.8076H32.8479H32.8883H32.9288H32.9693H33.0098H33.0504H33.091H33.1316H33.1723H33.213H33.2538H33.2946H33.3354H33.3763H33.4172H33.4581H33.4991H33.5401H33.5812H33.6223H33.6634H33.7045H33.7457H33.7869H33.8282H33.8695H33.9108H33.9521H33.9935H34.0349H34.0764H34.1178H34.1594H34.2009H34.2425H34.284H34.3257H34.3673H34.409H34.4507H34.4925H34.5342H34.576H34.6178H34.6597H34.7015H34.7434H34.7854H34.8273H34.8693H34.9113H34.9533H34.9953H35.0374H35.0795H35.1216H35.1638H35.2059H35.2481H35.2903H35.3325H35.3748H35.417H35.4593H35.5016H35.544H35.5863H35.6287H35.6711H35.7135H35.7559H35.7983H35.8408H35.8832H35.9257H35.9682H36.0108H36.0533H36.0959H36.1384H36.181H36.2236H36.2662H36.3088H36.3515H36.3941H36.4368H36.4795H36.5221H36.5648H36.6076H36.6503H36.693H36.7357H36.7785H36.8213H36.864H36.9068H36.9496H36.9924H37.0352H37.078H37.1208H37.1637H37.2065H37.2494H37.2922H37.3351H37.3779H37.4208H37.4637H37.5065H37.5494H37.5923H37.6352H37.6781H37.721H37.7639H37.8067H37.8496H37.8925H37.9354H37.9784H38.0213H38.0642H38.1071H38.15H38.1929H38.2358H38.2787H38.3216H38.3645H38.4074H38.4502H38.4931H38.536H38.5789H38.6218H38.6646H38.7075H38.7504H38.7932H38.8361H38.8789H38.9218H38.9646H39.0074H39.0502H39.0931H39.1359H39.1786H39.2214H39.2642H39.307H39.3497H39.3925H39.4352H39.478H39.5207H39.5634H39.6061H39.6487H39.6914H39.7341H39.7767H39.8193H39.862H39.9046H39.9472H39.9897H40.0323H40.0748H40.1174H40.1599H40.2024H40.2448H40.2873H40.3298H40.3722H40.4146H40.457H40.4994H40.5417H40.5841H40.6264H40.6687H40.7109H40.7532H40.7954H40.8377H40.8798H40.922H40.9642H41.0063H41.0484H41.0905H41.1325H41.1746H41.2166H41.2586H41.3005H41.3425H41.3844H41.4262H41.4681H41.5099H41.5517H41.5935H41.6353H41.677H41.7187H41.7604H41.802H41.8436H41.8852H41.9267H41.9683H42.0097H42.0512H42.0926H42.134H42.1754H42.2167H42.258H42.2993H42.3405H42.3817H42.4229H42.464H42.5051H42.5462H42.5872H42.6282H42.6692H42.7101H42.751H42.7919H42.8327H42.8734H42.9142H42.9549H42.9955H43.0362H43.0768H43.1173H43.1578H43.1983H43.2387H43.2791H43.3194H43.3597H43.4H43.4402H43.4804H43.5205H43.5606H43.6007H43.6407H43.6807H43.7206H43.7605H43.8003H43.8401H43.8798H43.9195H43.9592H43.9988H44.0383H44.0778H44.1173H44.1567H44.1961H44.2354H44.2746H44.3139H44.353H44.3922H44.4312H44.4702H44.5092H44.5481H44.587H44.6258H44.6646H44.7033H44.7419H44.7805H44.8191H44.8576H44.896H44.9344H44.9728H45.011H45.0493H45.0874H45.1255H45.1636H45.2016H45.2395H45.2774H45.3153H45.353H45.3907H45.4284H45.466H45.5035H45.541H45.5784H45.6158H45.6531H45.6903H45.7275H45.7646H45.8016H45.8386H45.8755H45.9124H45.9492H45.9859H46.0226H46.0592H46.0958H46.1322H46.1687H46.205H46.2413H46.2775H46.3136H46.3497H46.3857H46.4217H46.4576H46.4934H46.5291H46.5648H46.6004H46.6359H46.6714H46.7068H46.7421H46.7774H46.8126H46.8477H46.8827H46.9177H46.9526H46.9874H47.0222H47.0568H47.0914H47.126H47.1604H47.1948H47.2291H47.2633H47.2975H47.3316H47.3656H47.3995H47.4334H47.4671H47.5008H47.5344H47.568H47.6014H47.6348H47.6681H47.7013H47.7345H47.7675H47.8005H47.8334H47.8662H47.899H47.9316H47.9642H47.9967H48.0291H48.0614H48.0937H48.1258H48.1579H48.1899H48.2218H48.2536H48.2853H48.317H48.3485H48.38H48.4114H48.4427H48.4739H48.505H48.5361H48.567H48.5979H48.6287H48.6593H48.6899H48.7204H48.7508H48.7812H48.8114H48.8415H48.8587C49.3254 77.5954 49.991 77.3006 50.5296 76.8697C51.0968 76.4159 51.4461 75.8784 51.4139 75.2627C51.3707 74.4362 51.3607 72.5547 51.3656 70.511H47.3556V69.511H51.3691C51.3768 67.7878 51.3931 66.0388 51.4081 64.76L47.5344 62.835C46.8972 62.6453 46.0539 62.1718 45.5331 61.322C44.9804 60.4202 44.844 59.1826 45.5412 57.6127C45.9248 56.7492 46.5615 56.2541 47.3338 56.0648C48.0766 55.8828 48.9029 55.9926 49.694 56.2305C50.5924 56.5006 51.5112 56.9563 52.3266 57.4488L46.7709 46.3771L47.6647 45.9286L54.0948 58.743L53.3381 59.3597C52.356 58.5842 50.8218 57.6139 49.4061 57.1881C48.6973 56.975 48.0692 56.9142 47.5718 57.0361C47.1039 57.1508 46.7146 57.4344 46.4551 58.0186C45.8664 59.3442 46.0349 60.227 46.3857 60.7994C46.7554 61.4027 47.3852 61.7551 47.8516 61.8858L47.8969 61.8985L47.9391 61.9195L55.6706 65.7615L55.2256 66.657L52.4026 65.2542ZM46.9758 28.0687H51.4141L51.412 29.0021C51.4048 32.2418 51.3942 36.9829 51.4072 40.7443C51.178 40.3148 50.7392 39.8201 50.0964 39.5091C49.3158 39.1314 48.2759 39.0436 47.0186 39.5896C46.2849 39.9083 45.8148 40.4062 45.5461 40.975L46.4503 41.4021C46.6156 41.0523 46.9061 40.7287 47.417 40.5069C48.4325 40.0658 49.1664 40.17 49.6608 40.4092C50.1797 40.6603 50.4819 41.0825 50.5767 41.3262C50.6445 41.5008 50.9903 42.1839 51.4748 43.1236C51.9698 44.0838 52.6322 45.3541 53.3576 46.7388C54.4817 48.8847 55.7584 51.3074 56.8007 53.2804C57.0691 53.902 57.3813 54.4676 57.6618 54.905L58.5246 54.4012C58.2761 53.9317 57.9994 53.4086 57.7037 52.8488C57.4669 52.2946 57.2735 51.7025 57.1868 51.141C57.0991 50.5732 57.1278 50.0828 57.2868 49.7031C57.437 49.3442 57.7205 49.0412 58.2487 48.8552C58.941 48.6115 59.4793 48.6875 59.924 48.9079C60.3889 49.1382 60.7884 49.5455 61.1413 50.0223C61.4039 50.377 61.6173 50.7355 61.8129 51.0638L61.813 51.064C61.8831 51.1819 61.951 51.2958 62.018 51.4044C62.1343 51.5927 62.265 51.7927 62.4037 51.9337C62.4729 52.0041 62.5777 52.0955 62.7182 52.1484C62.8816 52.2099 63.0761 52.2115 63.257 52.1121C63.4945 51.9815 63.5572 51.7505 63.5644 51.6043C63.571 51.4716 63.5397 51.3467 63.5128 51.2591C63.4567 51.0765 63.354 50.8562 63.2493 50.6403C63.2107 50.5606 63.1702 50.4784 63.1285 50.3938C62.9307 49.9919 62.7072 49.538 62.5341 49.0597C62.3227 48.4758 62.2167 47.9321 62.2968 47.4857C62.3691 47.0822 62.6016 46.7043 63.2206 46.427C63.8188 46.1591 64.3216 46.2024 64.7694 46.4018C65.2395 46.6111 65.6714 47.0044 66.0631 47.4712C66.3898 47.8604 66.6634 48.2688 66.9012 48.6238L66.9013 48.6238C66.9481 48.6938 66.9936 48.7617 67.0378 48.8269C67.1639 49.013 67.2954 49.2012 67.4182 49.333C67.4766 49.3957 67.5674 49.4841 67.6861 49.543C67.8217 49.6103 68.0552 49.6625 68.2805 49.5139C68.5069 49.3645 68.5503 49.1295 68.5508 48.9923C68.5514 48.8607 68.5171 48.7358 68.4863 48.6434C68.4225 48.4523 68.3099 48.2217 68.1938 47.9929C68.1523 47.911 68.1089 47.8267 68.0644 47.7401C67.8462 47.3159 67.6009 46.8388 67.4126 46.3419C67.1829 45.736 67.0741 45.188 67.1622 44.7541C67.2396 44.3729 67.4837 44.0047 68.1757 43.7537C68.931 43.4797 69.5153 43.4678 69.9705 43.5798C70.4272 43.6923 70.797 43.9402 71.1045 44.2562C71.595 44.7602 71.8729 45.358 72.0857 45.8156L72.0858 45.8158C72.155 45.9646 72.2173 46.0986 72.2778 46.2098C72.3281 46.3021 72.4339 46.4853 72.5758 46.7311L72.5759 46.7311L72.5765 46.7322L72.6741 46.9013L72.7693 47.0664C73.0113 47.4866 73.3193 48.0255 73.6521 48.626L74.5268 48.1412C74.1903 47.534 73.8792 46.9899 73.6359 46.5674L73.509 46.3472L73.431 46.2123L73.4301 46.2107C73.2944 45.9758 73.1999 45.8122 73.1561 45.7317C73.1295 45.6827 73.0931 45.6034 73.0463 45.5016C72.845 45.063 72.452 44.2071 71.8212 43.5588C71.4149 43.1412 70.8874 42.7757 70.2095 42.6088C69.53 42.4415 68.7423 42.4844 67.8347 42.8137C66.8637 43.1659 66.3386 43.7847 66.1822 44.5551C66.0648 45.1332 66.1669 45.7439 66.3409 46.3021C66.0042 45.9779 65.6166 45.6844 65.1762 45.4883C64.4824 45.1793 63.6826 45.1243 62.8118 45.5144C61.9117 45.9177 61.447 46.5587 61.3125 47.3093C61.2246 47.7992 61.2826 48.3072 61.4032 48.785C61.1081 48.4832 60.7657 48.2089 60.368 48.0118C59.678 47.6699 58.8596 47.5799 57.9166 47.912C57.1367 48.1866 56.6297 48.6829 56.3643 49.3169C56.2773 49.5249 56.2183 49.7425 56.1825 49.9652C55.5331 48.7323 54.8649 47.4611 54.2434 46.2748C53.5432 44.9382 52.9026 43.7098 52.4151 42.7651L52.4173 42.7651C52.3901 38.8447 52.4034 32.8715 52.412 29.0136V29.0127V29.0121V29.0117V29.0115C52.415 27.685 52.4174 26.6088 52.4174 25.9523C52.4174 24.6716 51.9729 23.6731 51.266 22.9958C50.5655 22.3247 49.6397 22 48.7261 22H30.1287V23H48.7261C49.4081 23 50.0779 23.2424 50.5742 23.7179C51.064 24.1873 51.4174 24.915 51.4174 25.9523C51.4174 26.2452 51.4169 26.6224 51.4161 27.0687H46.9758V28.0687ZM75.0144 51.215C75.4321 52.0664 75.7915 52.8775 76.0126 53.5335L76.0152 53.5412L76.018 53.5488C76.4686 54.755 77.0429 56.5222 77.5545 58.0964L77.6083 58.2619C77.8696 59.0658 78.1124 59.8114 78.3092 60.3875C78.4074 60.6753 78.4956 60.9249 78.5697 61.1203C78.6377 61.2998 78.7092 61.4759 78.7751 61.5846C78.8407 61.6927 78.9428 62.0062 78.9909 62.4966C79.0369 62.9662 79.0275 63.5393 78.9188 64.1272C78.7009 65.3067 78.1018 66.4751 76.8293 67.0689L77.2522 67.9751C78.9177 67.1979 79.649 65.6793 79.9022 64.3089C80.0292 63.6217 80.0405 62.9542 79.9861 62.399C79.9337 61.8646 79.814 61.3692 79.6302 61.066L79.6303 61.0663C79.6299 61.0656 79.6286 61.0632 79.6263 61.0588L79.6203 61.0467C79.6128 61.0313 79.6032 61.0104 79.5915 60.9831C79.5678 60.9282 79.5389 60.8559 79.5047 60.7658C79.4365 60.5858 79.3525 60.3484 79.2555 60.0643C79.0616 59.4966 78.8212 58.7586 78.5593 57.9528L78.5015 57.7748L78.5013 57.7744L78.5013 57.7743L78.501 57.7735C77.9939 56.213 77.4155 54.433 76.9576 53.2064C76.7156 52.4902 76.335 51.6364 75.9121 50.7745L75.0144 51.215ZM59.4901 68.7683C60.012 68.9261 61.5155 69.7873 62.5682 71.9117C62.8854 72.5519 63.3138 72.9987 63.8138 73.2789C64.3101 73.557 64.8468 73.654 65.3595 73.6456C66.3593 73.6291 67.3262 73.212 67.9223 72.8362L73.059 70.1589L72.5967 69.2721L67.4415 71.9592L67.4222 71.9692L67.4039 71.9809C66.9082 72.2967 66.1112 72.6331 65.3431 72.6457C64.9666 72.6519 64.6129 72.5803 64.3026 72.4064C63.9959 72.2346 63.7013 71.9462 63.4642 71.4677C62.2996 69.1173 60.588 68.0555 59.7795 67.8111L59.4901 68.7683ZM36.7434 37.8132C35.3893 40.269 33.3297 44.0396 31.5044 47.4564C29.6533 50.9214 28.0671 53.9787 27.6793 54.961C27.2273 56.1061 27.2931 57.0393 27.7239 57.9498C28.1716 58.8959 29.024 59.8409 30.2139 60.9537C30.4539 61.1781 30.6768 61.2832 30.8786 61.3203C31.0813 61.3576 31.2995 61.3331 31.5396 61.2397C32.0373 61.046 32.5778 60.5751 33.1065 59.9134C34.1591 58.5963 34.9856 56.7541 35.2138 55.8002C35.3454 55.2498 35.0926 54.7932 34.5671 54.3915C34.0464 53.9934 33.3466 53.7307 32.8492 53.6136C32.5403 53.5768 32.237 53.4113 32.0319 53.0955C31.8261 52.7787 31.7483 52.3574 31.7863 51.8547C31.8615 50.859 32.4048 49.349 33.7675 47.0945C35.1225 44.8526 36.1177 43.7106 36.8549 43.2367C37.2254 42.9986 37.6216 42.8719 37.9966 42.9862C38.3617 43.0974 38.5548 43.388 38.6418 43.6461C39.0933 44.5283 39.4905 44.7787 39.7513 44.8181C40.0139 44.8578 40.3767 44.7192 40.8451 44.2247C41.7698 43.2486 42.6754 41.334 43.3613 39.4585C43.7089 38.5081 43.3746 37.4979 42.571 37.1094C39.9084 35.8222 37.6682 36.9392 36.7434 37.8132ZM35.9906 37.1501C37.0984 36.0567 39.8155 34.6666 43.0062 36.2091C44.3759 36.8712 44.782 38.4853 44.3005 39.802C43.6129 41.6819 42.6504 43.7731 41.5711 44.9124C41.0375 45.4757 40.3644 45.9222 39.6018 45.8069C38.8408 45.6918 38.2308 45.0531 37.7309 44.0609L37.7101 44.0196L37.6973 43.9752C37.6937 43.9628 37.6902 43.9532 37.6872 43.9459C37.6468 43.9513 37.5549 43.9756 37.3956 44.0779C36.8681 44.417 35.9725 45.3795 34.6233 47.6118C33.2818 49.8313 32.8405 51.1755 32.7835 51.93C32.7553 52.3024 32.8246 52.4801 32.8705 52.5509C32.9079 52.6085 32.9428 52.6187 32.9725 52.6211L33.0079 52.624L33.0426 52.6319C33.6304 52.7657 34.4943 53.0771 35.1744 53.5971C35.8598 54.121 36.4479 54.9393 36.1863 56.0328C35.923 57.134 35.0293 59.1092 33.8877 60.5377C33.3194 61.2488 32.6444 61.8828 31.9023 62.1716C31.5225 62.3194 31.1149 62.3806 30.6975 62.3038C30.2791 62.2268 29.8877 62.0178 29.5309 61.6841C28.3335 60.5642 27.3554 59.5089 26.82 58.3776C26.2678 57.2107 26.1982 55.9895 26.7492 54.5938C27.1638 53.5435 28.7873 50.4202 30.6224 46.9852C32.4668 43.5326 34.5492 39.7209 35.904 37.2645L35.939 37.201L35.9906 37.1501ZM37.6755 43.9251C37.6756 43.9248 37.6768 43.9259 37.6787 43.9289C37.6764 43.9268 37.6754 43.9253 37.6755 43.9251ZM31.6488 73.665H40.7696C41.0569 73.665 41.2898 73.8979 41.2898 74.1852C41.2898 74.4724 41.0569 74.7053 40.7696 74.7053H31.6488C31.3615 74.7053 31.1287 74.4724 31.1287 74.1852C31.1287 73.8979 31.3615 73.665 31.6488 73.665ZM30.1287 74.1852C30.1287 73.3456 30.8092 72.665 31.6488 72.665H40.7696C41.6092 72.665 42.2898 73.3456 42.2898 74.1852C42.2898 75.0247 41.6092 75.7053 40.7696 75.7053H31.6488C30.8092 75.7053 30.1287 75.0247 30.1287 74.1852Z" fill="#F4F4F4"/>
</svg>
