<svg width="58" height="58" viewBox="0 0 58 58" fill="none" xmlns="http://www.w3.org/2000/svg">
<g filter="url(#filter0_f_1060_1691)">
<path d="M23.2892 16C21.999 16 22.0676 16 21.6308 16C20.5744 16 20.0462 16.7402 19.7821 17.4804L16.877 24.1423H32.6403M27.8312 16C29.8936 16 33.3931 16 34.8361 16C35.3121 16 36.3151 16 36.9489 17.4804C37.5828 18.9608 39.1498 22.5385 39.8541 24.1423H37.9838" stroke="#09F6F9" stroke-linecap="square"/>
<path d="M16.8779 24.1426H15.4708C14.4587 24.1426 13.405 24.2983 12.6965 25.021C11.841 25.8936 11 27.3959 11 29.6922C11 31.0427 11 31.997 11 33.4894M40.1221 24.1426H41.3884C42.4916 24.1426 43.6607 24.2961 44.4262 25.0906C45.1211 25.8119 45.5136 26.7182 45.7328 27.5623M11 38.5867C11 39.9153 11 39.1764 11 39.9153C11.2672 40.3047 12.0687 41.0836 13.1374 41.0836C14.2061 41.0836 16.2545 41.0836 17.145 41.0836L17.6794 40.2074H20.6183M46 31.1527C46 33.9888 46 38.0581 46 39.039C46 40.2074 44.9313 40.8889 44.3969 41.0836H39.5878L39.0534 40.2074H36.1145" stroke="#09F6F9" stroke-linecap="square"/>
<path d="M18.9751 30.6313C18.9751 29.463 16.9267 27.321 16.0361 26.25C14.9674 25.3738 13.8987 26.2918 13.3644 27.1263C11.8682 29.463 12.9191 30.826 13.6316 31.2155L18.4407 32.0917C18.6188 32.0917 18.9751 31.7997 18.9751 30.6313Z" stroke="#09F6F9" stroke-linecap="round"/>
<path d="M37.7183 30.6313C37.7183 29.463 39.7667 27.321 40.6573 26.25C41.726 25.3738 42.7947 26.2918 43.329 27.1263C44.8252 29.463 43.7743 30.826 43.0618 31.2155L38.2526 32.0917C38.0745 32.0917 37.7183 31.7997 37.7183 30.6313Z" stroke="#09F6F9" stroke-linecap="round"/>
<path d="M18.7083 31.8011C17.7287 30.2904 14.9679 27.7119 13.0977 27.7119" stroke="#09F6F9" stroke-linecap="round"/>
<path d="M37.985 31.8011C38.9647 30.2904 41.7255 27.7119 43.5957 27.7119" stroke="#09F6F9" stroke-linecap="round"/>
<path d="M22.0998 32.2363H34.6338C35.2937 32.2363 35.8761 32.6676 36.0686 33.2989L36.452 34.5564C36.7459 35.5202 36.0248 36.4939 35.0172 36.4939H21.7163C20.7087 36.4939 19.9877 35.5202 20.2815 34.5564L20.665 33.2989C20.8574 32.6676 21.4399 32.2363 22.0998 32.2363Z" stroke="#09F6F9"/>
<path d="M20.5031 40.3467H35.2644C35.4217 40.3467 35.5699 40.2726 35.6643 40.1468L35.7617 40.0171C36.009 39.6875 35.7738 39.217 35.3618 39.217H20.4253C20.0368 39.217 19.7967 39.6407 19.9965 39.974L20.0742 40.1037C20.1646 40.2544 20.3274 40.3467 20.5031 40.3467Z" stroke="#09F6F9"/>
<rect x="13.6406" y="19.9688" width="2.74046" height="1.3367" rx="0.5" stroke="#09F6F9"/>
<rect x="40.3555" y="19.9688" width="2.74046" height="1.3367" rx="0.5" stroke="#09F6F9"/>
<path d="M40.1206 20.6377H38.5176" stroke="#09F6F9" stroke-linecap="square"/>
<path d="M16.6113 20.6377H18.4816" stroke="#09F6F9" stroke-linecap="square"/>
<path d="M22.2188 33.7812H29.4325" stroke="#09F6F9" stroke-linecap="round"/>
<path d="M35.314 35.2402H25.9629" stroke="#09F6F9" stroke-linecap="round"/>
</g>
<path d="M23.2892 16C21.999 16 22.0676 16 21.6308 16C20.5744 16 20.0462 16.7402 19.7821 17.4804L16.877 24.1423H32.6403M27.8312 16C29.8936 16 33.3931 16 34.8361 16C35.3121 16 36.3151 16 36.9489 17.4804C37.5828 18.9608 39.1498 22.5385 39.8541 24.1423H37.9838" stroke="#F4F4F4" stroke-linecap="square"/>
<path d="M16.8779 24.1426H15.4708C14.4587 24.1426 13.405 24.2983 12.6965 25.021C11.841 25.8936 11 27.3959 11 29.6922C11 31.0427 11 31.997 11 33.4894M40.1221 24.1426H41.3884C42.4916 24.1426 43.6607 24.2961 44.4262 25.0906C45.1211 25.8119 45.5136 26.7182 45.7328 27.5623M11 38.5867C11 39.9153 11 39.1764 11 39.9153C11.2672 40.3047 12.0687 41.0836 13.1374 41.0836C14.2061 41.0836 16.2545 41.0836 17.145 41.0836L17.6794 40.2074H20.6183M46 31.1527C46 33.9888 46 38.0581 46 39.039C46 40.2074 44.9313 40.8889 44.3969 41.0836H39.5878L39.0534 40.2074H36.1145" stroke="#F4F4F4" stroke-linecap="square"/>
<path d="M18.9751 30.6313C18.9751 29.463 16.9267 27.321 16.0361 26.25C14.9674 25.3738 13.8987 26.2918 13.3644 27.1263C11.8682 29.463 12.9191 30.826 13.6316 31.2155L18.4407 32.0917C18.6188 32.0917 18.9751 31.7997 18.9751 30.6313Z" stroke="#F4F4F4" stroke-linecap="round"/>
<path d="M37.7183 30.6313C37.7183 29.463 39.7667 27.321 40.6573 26.25C41.726 25.3738 42.7947 26.2918 43.329 27.1263C44.8252 29.463 43.7743 30.826 43.0618 31.2155L38.2526 32.0917C38.0745 32.0917 37.7183 31.7997 37.7183 30.6313Z" stroke="#F4F4F4" stroke-linecap="round"/>
<path d="M18.7083 31.8011C17.7287 30.2904 14.9679 27.7119 13.0977 27.7119" stroke="#F4F4F4" stroke-linecap="round"/>
<path d="M37.985 31.8011C38.9647 30.2904 41.7255 27.7119 43.5957 27.7119" stroke="#F4F4F4" stroke-linecap="round"/>
<path d="M22.0998 32.2363H34.6338C35.2937 32.2363 35.8761 32.6676 36.0686 33.2989L36.452 34.5564C36.7459 35.5202 36.0248 36.4939 35.0172 36.4939H21.7163C20.7087 36.4939 19.9877 35.5202 20.2815 34.5564L20.665 33.2989C20.8574 32.6676 21.4399 32.2363 22.0998 32.2363Z" stroke="#F4F4F4"/>
<path d="M20.5031 40.3467H35.2644C35.4217 40.3467 35.5699 40.2726 35.6643 40.1468L35.7617 40.0171C36.009 39.6875 35.7738 39.217 35.3618 39.217H20.4253C20.0368 39.217 19.7967 39.6407 19.9965 39.974L20.0742 40.1037C20.1646 40.2544 20.3274 40.3467 20.5031 40.3467Z" stroke="#F4F4F4"/>
<rect x="13.6406" y="19.9688" width="2.74046" height="1.3367" rx="0.5" stroke="#F4F4F4"/>
<rect x="40.3555" y="19.9688" width="2.74046" height="1.3367" rx="0.5" stroke="#F4F4F4"/>
<path d="M40.1206 20.6377H38.5176" stroke="#F4F4F4" stroke-linecap="square"/>
<path d="M16.6113 20.6377H18.4816" stroke="#F4F4F4" stroke-linecap="square"/>
<path d="M22.2188 33.7812H29.4325" stroke="#F4F4F4" stroke-linecap="round"/>
<path d="M35.314 35.2402H25.9629" stroke="#F4F4F4" stroke-linecap="round"/>
<defs>
<filter id="filter0_f_1060_1691" x="5.5" y="10.5" width="46" height="36.0837" filterUnits="userSpaceOnUse" color-interpolation-filters="sRGB">
<feFlood flood-opacity="0" result="BackgroundImageFix"/>
<feBlend mode="normal" in="SourceGraphic" in2="BackgroundImageFix" result="shape"/>
<feGaussianBlur stdDeviation="2.5" result="effect1_foregroundBlur_1060_1691"/>
</filter>
</defs>
</svg>
