<svg width="58" height="58" viewBox="0 0 58 58" fill="none" xmlns="http://www.w3.org/2000/svg">
<g filter="url(#filter0_f_1060_1849)">
<mask id="path-1-inside-1_1060_1849" fill="white">
<path fill-rule="evenodd" clip-rule="evenodd" d="M36.2432 20.0314L26.5983 18.4743L11.9031 37.9272L25.6823 48.3363L40.3774 28.8834L36.2432 20.0314ZM30.7326 27.3264C31.8517 28.1718 33.4442 27.9499 34.2896 26.8308C35.1351 25.7116 34.9132 24.1191 33.794 23.2737C32.6749 22.4283 31.0824 22.6501 30.237 23.7693C29.3915 24.8884 29.6134 26.4809 30.7326 27.3264Z"/>
</mask>
<path d="M26.5983 18.4743L26.7577 17.4871L26.1633 17.3911L25.8004 17.8716L26.5983 18.4743ZM36.2432 20.0314L37.1493 19.6083L36.9252 19.1286L36.4026 19.0442L36.2432 20.0314ZM11.9031 37.9272L11.1052 37.3245L10.5025 38.1224L11.3004 38.7252L11.9031 37.9272ZM25.6823 48.3363L25.0795 49.1342L25.8774 49.737L26.4802 48.9391L25.6823 48.3363ZM40.3774 28.8834L41.1754 29.4862L41.5383 29.0057L41.2835 28.4602L40.3774 28.8834ZM26.4389 19.4615L36.0838 21.0187L36.4026 19.0442L26.7577 17.4871L26.4389 19.4615ZM12.7011 38.53L27.3962 19.0771L25.8004 17.8716L11.1052 37.3245L12.7011 38.53ZM26.2851 47.5384L12.5059 37.1293L11.3004 38.7252L25.0795 49.1342L26.2851 47.5384ZM39.5795 28.2806L24.8844 47.7335L26.4802 48.9391L41.1754 29.4862L39.5795 28.2806ZM35.3372 20.4546L39.4714 29.3066L41.2835 28.4602L37.1493 19.6083L35.3372 20.4546ZM33.4917 26.228C32.9792 26.9064 32.0138 27.0409 31.3353 26.5284L30.1298 28.1243C31.6896 29.3026 33.9093 28.9933 35.0876 27.4335L33.4917 26.228ZM33.1913 24.0716C33.8697 24.5841 34.0042 25.5495 33.4917 26.228L35.0876 27.4335C36.2659 25.8737 35.9566 23.6541 34.3968 22.4757L33.1913 24.0716ZM31.0349 24.372C31.5474 23.6936 32.5128 23.5591 33.1913 24.0716L34.3968 22.4757C32.837 21.2974 30.6173 21.6067 29.439 23.1665L31.0349 24.372ZM31.3353 26.5284C30.6569 26.0159 30.5224 25.0505 31.0349 24.372L29.439 23.1665C28.2607 24.7263 28.57 26.946 30.1298 28.1243L31.3353 26.5284Z" fill="#09F6F9" mask="url(#path-1-inside-1_1060_1849)"/>
<path d="M20.1737 33.9565L19.8723 34.3555L20.1583 34.5715L20.4547 34.3701L20.1737 33.9565ZM21.1787 33.5254L21.0818 33.0349L21.0818 33.0349L21.1787 33.5254ZM21.6859 35.4874L21.977 35.0809L21.906 35.03L21.8219 35.0062L21.6859 35.4874ZM21.5662 35.4875L21.6631 35.9781L21.6631 35.9781L21.5662 35.4875ZM20.4118 37.0158L19.9135 37.0567L19.9135 37.0567L20.4118 37.0158ZM20.4437 37.1298L20.0168 37.3902L20.0676 37.4735L20.146 37.5316L20.4437 37.1298ZM20.7692 37.3101L20.8724 36.8208L20.8717 36.8207L20.7692 37.3101ZM20.7704 37.3103L20.8738 36.8211L20.8736 36.8211L20.7704 37.3103ZM20.9332 37.2776L21.1276 37.7382L21.1276 37.7382L20.9332 37.2776ZM22.6852 35.717L23.0534 36.0553L23.0534 36.0553L22.6852 35.717ZM25.562 35.3928L25.3006 35.8189L25.3006 35.8189L25.562 35.3928ZM26.5891 38.3602L27.0668 38.508L27.0668 38.508L26.5891 38.3602ZM26.4655 38.7089L26.0012 38.5233L25.8595 38.8778L26.1641 39.1079L26.4655 38.7089ZM25.3479 40.3712L25.6493 39.9722L25.3134 39.7185L25.0062 40.0062L25.3479 40.3712ZM24.883 40.7434L25.1629 41.1576L25.1629 41.1576L24.883 40.7434ZM21.4644 40.8211L21.712 40.3867L21.712 40.3867L21.4644 40.8211ZM21.0908 39.4571L21.5252 39.7047L21.5252 39.7047L21.0908 39.4571ZM21.2276 39.2706L21.5938 39.611L22.6487 38.4765L21.1296 38.7803L21.2276 39.2706ZM20.3592 39.2676L20.2567 39.757L20.3592 39.2676ZM18.4185 37.1793L17.9202 37.2202L17.9202 37.2202L18.4185 37.1793ZM18.8423 35.4573L19.2788 35.7011L19.4912 35.3209L19.1437 35.0583L18.8423 35.4573ZM22.4547 39.0835L22.2071 39.5179L22.2071 39.5179L22.4547 39.0835ZM22.0421 38.9555L21.7945 38.5211L20.3902 39.3215L22.0011 39.4538L22.0421 38.9555ZM23.7631 39.0863L24.043 39.5006L24.043 39.5006L23.7631 39.0863ZM24.6784 37.7692L25.1561 37.917L25.1561 37.917L24.6784 37.7692ZM24.695 37.3077L24.2278 37.4859L24.2278 37.4859L24.695 37.3077ZM24.5161 37.0975L24.7776 36.6713L24.7776 36.6713L24.5161 37.0975ZM24.1579 37.0701L24.5261 37.4084L24.5261 37.4084L24.1579 37.0701ZM19.5526 32.8607C18.8916 32.3613 17.9509 32.4924 17.4516 33.1534L18.2495 33.7562C18.4159 33.5358 18.7295 33.4922 18.9498 33.6586L19.5526 32.8607ZM20.4751 33.5576L19.5526 32.8607L18.9498 33.6586L19.8723 34.3555L20.4751 33.5576ZM21.0818 33.0349C20.6679 33.1167 20.2687 33.2875 19.8927 33.5429L20.4547 34.3701C20.7288 34.1839 21.004 34.0696 21.2756 34.016L21.0818 33.0349ZM23.1719 33.4772C22.6623 33.0923 21.9074 32.8719 21.0818 33.0349L21.2756 34.016C21.8176 33.9089 22.2836 34.0594 22.5692 34.2752L23.1719 33.4772ZM23.4647 35.5783C23.964 34.9172 23.833 33.9766 23.1719 33.4772L22.5692 34.2752C22.7895 34.4416 22.8332 34.7552 22.6667 34.9755L23.4647 35.5783ZM21.3947 35.8938C22.054 36.3661 22.9731 36.229 23.4647 35.5783L22.6667 34.9755C22.503 35.1923 22.1965 35.2381 21.977 35.0809L21.3947 35.8938ZM21.6631 35.9781C21.6553 35.9796 21.6389 35.9817 21.6149 35.9801C21.6031 35.9793 21.5907 35.9777 21.5778 35.9752C21.5715 35.9739 21.5655 35.9726 21.56 35.9712C21.5573 35.9705 21.5549 35.9699 21.5529 35.9694C21.551 35.9689 21.5496 35.9685 21.5498 35.9685L21.8219 35.0062C21.7559 34.9876 21.6346 34.9644 21.4693 34.997L21.6631 35.9781ZM21.2003 36.4113C21.5271 35.9786 21.7108 35.9687 21.6631 35.9781L21.4693 34.997C21.2195 35.0463 20.8385 35.2312 20.4024 35.8085L21.2003 36.4113ZM20.9101 36.9749C20.9141 37.0233 20.8735 36.8439 21.2003 36.4113L20.4024 35.8085C19.9663 36.3858 19.8926 36.8029 19.9135 37.0567L20.9101 36.9749ZM20.8705 36.8695C20.8744 36.8758 20.8801 36.8856 20.8859 36.8974C20.8914 36.9088 20.896 36.9198 20.8997 36.9303C20.9072 36.9518 20.9095 36.9673 20.9101 36.9749L19.9135 37.0567C19.9266 37.2167 19.9778 37.3262 20.0168 37.3902L20.8705 36.8695ZM20.8717 36.8207C20.9287 36.8326 20.8971 36.8435 20.7413 36.7281L20.146 37.5316C20.3635 37.6927 20.5287 37.7706 20.6667 37.7995L20.8717 36.8207ZM20.8736 36.8211L20.8724 36.8208L20.666 37.7993L20.6672 37.7996L20.8736 36.8211ZM20.7388 36.8169C20.7134 36.8276 20.7235 36.8201 20.7582 36.8159C20.7771 36.8135 20.8006 36.8126 20.8271 36.8146C20.8539 36.8167 20.875 36.8214 20.8738 36.8211L20.667 37.7995C20.7054 37.8076 20.7793 37.8207 20.8795 37.8085C20.9645 37.7981 21.0469 37.7723 21.1276 37.7382L20.7388 36.8169ZM22.317 35.3787C21.8536 35.8831 21.507 36.2257 21.2445 36.4548C20.9769 36.6884 20.8209 36.7822 20.7388 36.8169L21.1276 37.7382C21.3554 37.6421 21.606 37.4666 21.9021 37.2082C22.2034 36.9451 22.5778 36.5729 23.0534 36.0553L22.317 35.3787ZM25.8235 34.9666C24.8607 34.3759 23.3383 34.2671 22.317 35.3787L23.0534 36.0553C23.6667 35.3877 24.6292 35.407 25.3006 35.8189L25.8235 34.9666ZM27.0668 38.508C27.5382 36.984 26.914 35.6356 25.8235 34.9666L25.3006 35.8189C26.008 36.253 26.4456 37.1321 26.1114 38.2125L27.0668 38.508ZM26.9298 38.8945C26.9815 38.7651 27.0272 38.6359 27.0668 38.508L26.1114 38.2125C26.0799 38.3144 26.0432 38.4184 26.0012 38.5233L26.9298 38.8945ZM26.1641 39.1079L27.277 39.9486L27.8798 39.1507L26.7669 38.31L26.1641 39.1079ZM27.277 39.9486C27.4973 40.115 27.541 40.4286 27.3746 40.6489L28.1725 41.2517C28.6719 40.5907 28.5408 39.65 27.8798 39.1507L27.277 39.9486ZM27.3746 40.6489C27.2081 40.8693 26.8946 40.913 26.6742 40.7465L26.0715 41.5444C26.7325 42.0438 27.6732 41.9127 28.1725 41.2517L27.3746 40.6489ZM26.6742 40.7465L25.6493 39.9722L25.0465 40.7702L26.0715 41.5444L26.6742 40.7465ZM25.1629 41.1576C25.3518 41.03 25.5274 40.8881 25.6897 40.7362L25.0062 40.0062C24.8799 40.1245 24.7454 40.2328 24.603 40.3291L25.1629 41.1576ZM21.2168 41.2555C22.6559 42.0758 24.0811 41.8888 25.1629 41.1576L24.603 40.3291C23.8173 40.8601 22.8008 41.0073 21.712 40.3867L21.2168 41.2555ZM20.6564 39.2095C20.2461 39.9292 20.497 40.8453 21.2168 41.2555L21.712 40.3867C21.4721 40.25 21.3884 39.9446 21.5252 39.7047L20.6564 39.2095ZM20.8615 38.9301C20.7838 39.0136 20.7148 39.1071 20.6564 39.2095L21.5252 39.7047C21.5451 39.6697 21.5682 39.6385 21.5938 39.611L20.8615 38.9301ZM20.2567 39.757C20.6217 39.8334 20.9799 39.83 21.3257 39.7609L21.1296 38.7803C20.9106 38.8241 20.6889 38.8258 20.4617 38.7782L20.2567 39.757ZM18.917 39.1098C19.2684 39.3753 19.713 39.6431 20.2567 39.757L20.4617 38.7782C20.1186 38.7064 19.8103 38.5314 19.5197 38.3119L18.917 39.1098ZM17.9202 37.2202C17.989 38.0589 18.4074 38.7249 18.917 39.1098L19.5197 38.3119C19.2341 38.0962 18.962 37.6891 18.9168 37.1384L17.9202 37.2202ZM18.4058 35.2134C18.0324 35.8819 17.8661 36.561 17.9202 37.2202L18.9168 37.1384C18.8816 36.7095 18.9851 36.2269 19.2788 35.7011L18.4058 35.2134ZM17.7443 35.2544L18.5409 35.8562L19.1437 35.0583L18.3471 34.4565L17.7443 35.2544ZM17.4516 33.1534C16.9522 33.8144 17.0833 34.7551 17.7443 35.2544L18.3471 34.4565C18.1267 34.2901 18.083 33.9765 18.2495 33.7562L17.4516 33.1534ZM22.7023 38.6491C22.5067 38.5376 22.2952 38.4746 22.083 38.4571L22.0011 39.4538C22.0709 39.4595 22.1409 39.4801 22.2071 39.5179L22.7023 38.6491ZM23.4831 38.672C23.3651 38.7518 23.2662 38.7874 23.168 38.7924C23.0699 38.7974 22.9219 38.7742 22.7023 38.6491L22.2071 39.5179C22.5524 39.7147 22.8886 39.8078 23.2185 39.7911C23.5484 39.7744 23.8211 39.6505 24.043 39.5006L23.4831 38.672ZM24.2008 37.6214C24.0649 38.0605 23.7759 38.4741 23.4831 38.672L24.043 39.5006C24.5648 39.1479 24.9689 38.5221 25.1561 37.917L24.2008 37.6214ZM24.2278 37.4859C24.2232 37.4737 24.2254 37.4723 24.2256 37.4873C24.2259 37.5038 24.2239 37.5466 24.2008 37.6214L25.1561 37.917C25.2595 37.5825 25.2357 37.3222 25.1622 37.1295L24.2278 37.4859ZM24.2546 37.5236C24.2547 37.5237 24.2535 37.523 24.2516 37.5213C24.2496 37.5197 24.247 37.5172 24.2441 37.5137C24.238 37.5066 24.2321 37.497 24.2278 37.4859L25.1622 37.1295C25.0875 36.9336 24.9498 36.7769 24.7776 36.6713L24.2546 37.5236ZM24.5261 37.4084C24.4926 37.4449 24.4626 37.466 24.4518 37.4735C24.4356 37.4846 24.4205 37.4931 24.4068 37.4997C24.3791 37.513 24.351 37.5213 24.3237 37.5247C24.2603 37.5325 24.2335 37.5107 24.2546 37.5236L24.7776 36.6713C24.3717 36.4222 23.9758 36.5294 23.7898 36.7318L24.5261 37.4084ZM22.2897 39.3899C23.029 38.9684 23.7567 38.2459 24.5261 37.4084L23.7898 36.7318C23.0161 37.5739 22.3824 38.186 21.7945 38.5211L22.2897 39.3899Z" fill="#09F6F9"/>
<line x1="26.623" y1="26.1203" x2="22.9396" y2="30.9961" stroke="#09F6F9" stroke-linecap="round"/>
<line x1="33.1054" y1="31.0187" x2="29.4221" y2="35.8946" stroke="#09F6F9" stroke-linecap="round"/>
<line x1="29.0524" y1="27.9572" x2="26.5937" y2="31.212" stroke="#09F6F9" stroke-linecap="round"/>
<line x1="27.004" y1="34.0672" x2="29.4627" y2="30.8125" stroke="#09F6F9" stroke-linecap="round"/>
<path d="M33.1191 23.3707C33.062 22.9605 32.6831 22.6743 32.2728 22.7314C31.8625 22.7886 31.5763 23.1675 31.6335 23.5777L33.1191 23.3707ZM39.7966 22.0776L39.1672 21.6698L39.7966 22.0776ZM33.8227 15.6555L34.4212 16.1075L34.4417 16.0804L34.4597 16.0515L33.8227 15.6555ZM31.4333 19.4666L31.3902 20.2154L32.8878 20.3015L32.9308 19.5527L31.4333 19.4666ZM31.6335 23.5777C31.8288 24.9794 32.865 26.5571 34.6379 26.7277C36.3954 26.8968 38.3918 25.625 40.426 22.4855L39.1672 21.6698C37.1998 24.7061 35.6512 25.3183 34.7816 25.2346C33.9273 25.1524 33.2542 24.3405 33.1191 23.3707L31.6335 23.5777ZM40.426 22.4855C42.5542 19.2009 41.7709 15.9925 39.8768 14.2803C38.9437 13.4369 37.7264 12.9508 36.4846 13.0607C35.2205 13.1725 34.0354 13.8928 33.1857 15.2595L34.4597 16.0515C35.0909 15.036 35.8774 14.6202 36.6168 14.5549C37.3783 14.4875 38.1962 14.7831 38.8709 15.3931C40.1922 16.5875 40.915 18.9723 39.1672 21.6698L40.426 22.4855ZM33.2242 15.2035C32.8224 15.7355 31.553 17.3842 31.4333 19.4666L32.9308 19.5527C33.0216 17.9747 34.0067 16.6563 34.4212 16.1075L33.2242 15.2035Z" fill="#09F6F9"/>
</g>
<mask id="path-9-inside-2_1060_1849" fill="white">
<path fill-rule="evenodd" clip-rule="evenodd" d="M36.2432 20.0314L26.5983 18.4743L11.9031 37.9272L25.6823 48.3363L40.3774 28.8834L36.2432 20.0314ZM30.7326 27.3264C31.8517 28.1718 33.4442 27.9499 34.2896 26.8308C35.1351 25.7116 34.9132 24.1191 33.794 23.2737C32.6749 22.4283 31.0824 22.6501 30.237 23.7693C29.3915 24.8884 29.6134 26.4809 30.7326 27.3264Z"/>
</mask>
<path d="M26.5983 18.4743L26.7577 17.4871L26.1633 17.3911L25.8004 17.8716L26.5983 18.4743ZM36.2432 20.0314L37.1493 19.6083L36.9252 19.1286L36.4026 19.0442L36.2432 20.0314ZM11.9031 37.9272L11.1052 37.3245L10.5025 38.1224L11.3004 38.7252L11.9031 37.9272ZM25.6823 48.3363L25.0795 49.1342L25.8774 49.737L26.4802 48.9391L25.6823 48.3363ZM40.3774 28.8834L41.1754 29.4862L41.5383 29.0057L41.2835 28.4602L40.3774 28.8834ZM26.4389 19.4615L36.0838 21.0187L36.4026 19.0442L26.7577 17.4871L26.4389 19.4615ZM12.7011 38.53L27.3962 19.0771L25.8004 17.8716L11.1052 37.3245L12.7011 38.53ZM26.2851 47.5384L12.5059 37.1293L11.3004 38.7252L25.0795 49.1342L26.2851 47.5384ZM39.5795 28.2806L24.8844 47.7335L26.4802 48.9391L41.1754 29.4862L39.5795 28.2806ZM35.3372 20.4546L39.4714 29.3066L41.2835 28.4602L37.1493 19.6083L35.3372 20.4546ZM33.4917 26.228C32.9792 26.9064 32.0138 27.0409 31.3353 26.5284L30.1298 28.1243C31.6896 29.3026 33.9093 28.9933 35.0876 27.4335L33.4917 26.228ZM33.1913 24.0716C33.8697 24.5841 34.0042 25.5495 33.4917 26.228L35.0876 27.4335C36.2659 25.8737 35.9566 23.6541 34.3968 22.4757L33.1913 24.0716ZM31.0349 24.372C31.5474 23.6936 32.5128 23.5591 33.1913 24.0716L34.3968 22.4757C32.837 21.2974 30.6173 21.6067 29.439 23.1665L31.0349 24.372ZM31.3353 26.5284C30.6569 26.0159 30.5224 25.0505 31.0349 24.372L29.439 23.1665C28.2607 24.7263 28.57 26.946 30.1298 28.1243L31.3353 26.5284Z" fill="#F4F4F4" mask="url(#path-9-inside-2_1060_1849)"/>
<path d="M20.1737 33.9565L19.8723 34.3555L20.1583 34.5715L20.4547 34.3701L20.1737 33.9565ZM21.1787 33.5254L21.0818 33.0349L21.0818 33.0349L21.1787 33.5254ZM21.6859 35.4874L21.977 35.0809L21.906 35.03L21.8219 35.0062L21.6859 35.4874ZM21.5662 35.4875L21.6631 35.9781L21.6631 35.9781L21.5662 35.4875ZM20.4118 37.0158L19.9135 37.0567L19.9135 37.0567L20.4118 37.0158ZM20.4437 37.1298L20.0168 37.3902L20.0676 37.4735L20.146 37.5316L20.4437 37.1298ZM20.7692 37.3101L20.8724 36.8208L20.8717 36.8207L20.7692 37.3101ZM20.7704 37.3103L20.8738 36.8211L20.8736 36.8211L20.7704 37.3103ZM20.9332 37.2776L21.1276 37.7382L21.1276 37.7382L20.9332 37.2776ZM22.6852 35.717L23.0534 36.0553L23.0534 36.0553L22.6852 35.717ZM25.562 35.3928L25.3006 35.8189L25.3006 35.8189L25.562 35.3928ZM26.5891 38.3602L27.0668 38.508L27.0668 38.508L26.5891 38.3602ZM26.4655 38.7089L26.0012 38.5233L25.8595 38.8778L26.1641 39.1079L26.4655 38.7089ZM25.3479 40.3712L25.6493 39.9722L25.3134 39.7185L25.0062 40.0062L25.3479 40.3712ZM24.883 40.7434L25.1629 41.1576L25.1629 41.1576L24.883 40.7434ZM21.4644 40.8211L21.712 40.3867L21.712 40.3867L21.4644 40.8211ZM21.0908 39.4571L21.5252 39.7047L21.5252 39.7047L21.0908 39.4571ZM21.2276 39.2706L21.5938 39.611L22.6487 38.4765L21.1296 38.7803L21.2276 39.2706ZM20.3592 39.2676L20.2567 39.757L20.3592 39.2676ZM18.4185 37.1793L17.9202 37.2202L17.9202 37.2202L18.4185 37.1793ZM18.8423 35.4573L19.2788 35.7011L19.4912 35.3209L19.1437 35.0583L18.8423 35.4573ZM22.4547 39.0835L22.2071 39.5179L22.2071 39.5179L22.4547 39.0835ZM22.0421 38.9555L21.7945 38.5211L20.3902 39.3215L22.0011 39.4538L22.0421 38.9555ZM23.7631 39.0863L24.043 39.5006L24.043 39.5006L23.7631 39.0863ZM24.6784 37.7692L25.1561 37.917L25.1561 37.917L24.6784 37.7692ZM24.695 37.3077L24.2278 37.4859L24.2278 37.4859L24.695 37.3077ZM24.5161 37.0975L24.7776 36.6713L24.7776 36.6713L24.5161 37.0975ZM24.1579 37.0701L24.5261 37.4084L24.5261 37.4084L24.1579 37.0701ZM19.5526 32.8607C18.8916 32.3613 17.9509 32.4924 17.4516 33.1534L18.2495 33.7562C18.4159 33.5358 18.7295 33.4922 18.9498 33.6586L19.5526 32.8607ZM20.4751 33.5576L19.5526 32.8607L18.9498 33.6586L19.8723 34.3555L20.4751 33.5576ZM21.0818 33.0349C20.6679 33.1167 20.2687 33.2875 19.8927 33.5429L20.4547 34.3701C20.7288 34.1839 21.004 34.0696 21.2756 34.016L21.0818 33.0349ZM23.1719 33.4772C22.6623 33.0923 21.9074 32.8719 21.0818 33.0349L21.2756 34.016C21.8176 33.9089 22.2836 34.0594 22.5692 34.2752L23.1719 33.4772ZM23.4647 35.5783C23.964 34.9172 23.833 33.9766 23.1719 33.4772L22.5692 34.2752C22.7895 34.4416 22.8332 34.7552 22.6667 34.9755L23.4647 35.5783ZM21.3947 35.8938C22.054 36.3661 22.9731 36.229 23.4647 35.5783L22.6667 34.9755C22.503 35.1923 22.1965 35.2381 21.977 35.0809L21.3947 35.8938ZM21.6631 35.9781C21.6553 35.9796 21.6389 35.9817 21.6149 35.9801C21.6031 35.9793 21.5907 35.9777 21.5778 35.9752C21.5715 35.9739 21.5655 35.9726 21.56 35.9712C21.5573 35.9705 21.5549 35.9699 21.5529 35.9694C21.551 35.9689 21.5496 35.9685 21.5498 35.9685L21.8219 35.0062C21.7559 34.9876 21.6346 34.9644 21.4693 34.997L21.6631 35.9781ZM21.2003 36.4113C21.5271 35.9786 21.7108 35.9687 21.6631 35.9781L21.4693 34.997C21.2195 35.0463 20.8385 35.2312 20.4024 35.8085L21.2003 36.4113ZM20.9101 36.9749C20.9141 37.0233 20.8735 36.8439 21.2003 36.4113L20.4024 35.8085C19.9663 36.3858 19.8926 36.8029 19.9135 37.0567L20.9101 36.9749ZM20.8705 36.8695C20.8744 36.8758 20.8801 36.8856 20.8859 36.8974C20.8914 36.9088 20.896 36.9198 20.8997 36.9303C20.9072 36.9518 20.9095 36.9673 20.9101 36.9749L19.9135 37.0567C19.9266 37.2167 19.9778 37.3262 20.0168 37.3902L20.8705 36.8695ZM20.8717 36.8207C20.9287 36.8326 20.8971 36.8435 20.7413 36.7281L20.146 37.5316C20.3635 37.6927 20.5287 37.7706 20.6667 37.7995L20.8717 36.8207ZM20.8736 36.8211L20.8724 36.8208L20.666 37.7993L20.6672 37.7996L20.8736 36.8211ZM20.7388 36.8169C20.7134 36.8276 20.7235 36.8201 20.7582 36.8159C20.7771 36.8135 20.8006 36.8126 20.8271 36.8146C20.8539 36.8167 20.875 36.8214 20.8738 36.8211L20.667 37.7995C20.7054 37.8076 20.7793 37.8207 20.8795 37.8085C20.9645 37.7981 21.0469 37.7723 21.1276 37.7382L20.7388 36.8169ZM22.317 35.3787C21.8536 35.8831 21.507 36.2257 21.2445 36.4548C20.9769 36.6884 20.8209 36.7822 20.7388 36.8169L21.1276 37.7382C21.3554 37.6421 21.606 37.4666 21.9021 37.2082C22.2034 36.9451 22.5778 36.5729 23.0534 36.0553L22.317 35.3787ZM25.8235 34.9666C24.8607 34.3759 23.3383 34.2671 22.317 35.3787L23.0534 36.0553C23.6667 35.3877 24.6292 35.407 25.3006 35.8189L25.8235 34.9666ZM27.0668 38.508C27.5382 36.984 26.914 35.6356 25.8235 34.9666L25.3006 35.8189C26.008 36.253 26.4456 37.1321 26.1114 38.2125L27.0668 38.508ZM26.9298 38.8945C26.9815 38.7651 27.0272 38.6359 27.0668 38.508L26.1114 38.2125C26.0799 38.3144 26.0432 38.4184 26.0012 38.5233L26.9298 38.8945ZM26.1641 39.1079L27.277 39.9486L27.8798 39.1507L26.7669 38.31L26.1641 39.1079ZM27.277 39.9486C27.4973 40.115 27.541 40.4286 27.3746 40.6489L28.1725 41.2517C28.6719 40.5907 28.5408 39.65 27.8798 39.1507L27.277 39.9486ZM27.3746 40.6489C27.2081 40.8693 26.8946 40.913 26.6742 40.7465L26.0715 41.5444C26.7325 42.0438 27.6732 41.9127 28.1725 41.2517L27.3746 40.6489ZM26.6742 40.7465L25.6493 39.9722L25.0465 40.7702L26.0715 41.5444L26.6742 40.7465ZM25.1629 41.1576C25.3518 41.03 25.5274 40.8881 25.6897 40.7362L25.0062 40.0062C24.8799 40.1245 24.7454 40.2328 24.603 40.3291L25.1629 41.1576ZM21.2168 41.2555C22.6559 42.0758 24.0811 41.8888 25.1629 41.1576L24.603 40.3291C23.8173 40.8601 22.8008 41.0073 21.712 40.3867L21.2168 41.2555ZM20.6564 39.2095C20.2461 39.9292 20.497 40.8453 21.2168 41.2555L21.712 40.3867C21.4721 40.25 21.3884 39.9446 21.5252 39.7047L20.6564 39.2095ZM20.8615 38.9301C20.7838 39.0136 20.7148 39.1071 20.6564 39.2095L21.5252 39.7047C21.5451 39.6697 21.5682 39.6385 21.5938 39.611L20.8615 38.9301ZM20.2567 39.757C20.6217 39.8334 20.9799 39.83 21.3257 39.7609L21.1296 38.7803C20.9106 38.8241 20.6889 38.8258 20.4617 38.7782L20.2567 39.757ZM18.917 39.1098C19.2684 39.3753 19.713 39.6431 20.2567 39.757L20.4617 38.7782C20.1186 38.7064 19.8103 38.5314 19.5197 38.3119L18.917 39.1098ZM17.9202 37.2202C17.989 38.0589 18.4074 38.7249 18.917 39.1098L19.5197 38.3119C19.2341 38.0962 18.962 37.6891 18.9168 37.1384L17.9202 37.2202ZM18.4058 35.2134C18.0324 35.8819 17.8661 36.561 17.9202 37.2202L18.9168 37.1384C18.8816 36.7095 18.9851 36.2269 19.2788 35.7011L18.4058 35.2134ZM17.7443 35.2544L18.5409 35.8562L19.1437 35.0583L18.3471 34.4565L17.7443 35.2544ZM17.4516 33.1534C16.9522 33.8144 17.0833 34.7551 17.7443 35.2544L18.3471 34.4565C18.1267 34.2901 18.083 33.9765 18.2495 33.7562L17.4516 33.1534ZM22.7023 38.6491C22.5067 38.5376 22.2952 38.4746 22.083 38.4571L22.0011 39.4538C22.0709 39.4595 22.1409 39.4801 22.2071 39.5179L22.7023 38.6491ZM23.4831 38.672C23.3651 38.7518 23.2662 38.7874 23.168 38.7924C23.0699 38.7974 22.9219 38.7742 22.7023 38.6491L22.2071 39.5179C22.5524 39.7147 22.8886 39.8078 23.2185 39.7911C23.5484 39.7744 23.8211 39.6505 24.043 39.5006L23.4831 38.672ZM24.2008 37.6214C24.0649 38.0605 23.7759 38.4741 23.4831 38.672L24.043 39.5006C24.5648 39.1479 24.9689 38.5221 25.1561 37.917L24.2008 37.6214ZM24.2278 37.4859C24.2232 37.4737 24.2254 37.4723 24.2256 37.4873C24.2259 37.5038 24.2239 37.5466 24.2008 37.6214L25.1561 37.917C25.2595 37.5825 25.2357 37.3222 25.1622 37.1295L24.2278 37.4859ZM24.2546 37.5236C24.2547 37.5237 24.2535 37.523 24.2516 37.5213C24.2496 37.5197 24.247 37.5172 24.2441 37.5137C24.238 37.5066 24.2321 37.497 24.2278 37.4859L25.1622 37.1295C25.0875 36.9336 24.9498 36.7769 24.7776 36.6713L24.2546 37.5236ZM24.5261 37.4084C24.4926 37.4449 24.4626 37.466 24.4518 37.4735C24.4356 37.4846 24.4205 37.4931 24.4068 37.4997C24.3791 37.513 24.351 37.5213 24.3237 37.5247C24.2603 37.5325 24.2335 37.5107 24.2546 37.5236L24.7776 36.6713C24.3717 36.4222 23.9758 36.5294 23.7898 36.7318L24.5261 37.4084ZM22.2897 39.3899C23.029 38.9684 23.7567 38.2459 24.5261 37.4084L23.7898 36.7318C23.0161 37.5739 22.3824 38.186 21.7945 38.5211L22.2897 39.3899Z" fill="#F4F4F4"/>
<line x1="26.623" y1="26.1203" x2="22.9396" y2="30.9961" stroke="#F4F4F4" stroke-linecap="round"/>
<line x1="33.1054" y1="31.0187" x2="29.4221" y2="35.8946" stroke="#F4F4F4" stroke-linecap="round"/>
<line x1="29.0524" y1="27.9572" x2="26.5937" y2="31.212" stroke="#F4F4F4" stroke-linecap="round"/>
<line x1="27.004" y1="34.0672" x2="29.4627" y2="30.8125" stroke="#F4F4F4" stroke-linecap="round"/>
<path d="M33.1191 23.3707C33.062 22.9605 32.6831 22.6743 32.2728 22.7314C31.8625 22.7886 31.5763 23.1675 31.6335 23.5777L33.1191 23.3707ZM39.7966 22.0776L39.1672 21.6698L39.7966 22.0776ZM33.8227 15.6555L34.4212 16.1075L34.4417 16.0804L34.4597 16.0515L33.8227 15.6555ZM31.4333 19.4666L31.3902 20.2154L32.8878 20.3015L32.9308 19.5527L31.4333 19.4666ZM31.6335 23.5777C31.8288 24.9794 32.865 26.5571 34.6379 26.7277C36.3954 26.8968 38.3918 25.625 40.426 22.4855L39.1672 21.6698C37.1998 24.7061 35.6512 25.3183 34.7816 25.2346C33.9273 25.1524 33.2542 24.3405 33.1191 23.3707L31.6335 23.5777ZM40.426 22.4855C42.5542 19.2009 41.7709 15.9925 39.8768 14.2803C38.9437 13.4369 37.7264 12.9508 36.4846 13.0607C35.2205 13.1725 34.0354 13.8928 33.1857 15.2595L34.4597 16.0515C35.0909 15.036 35.8774 14.6202 36.6168 14.5549C37.3783 14.4875 38.1962 14.7831 38.8709 15.3931C40.1922 16.5875 40.915 18.9723 39.1672 21.6698L40.426 22.4855ZM33.2242 15.2035C32.8224 15.7355 31.553 17.3842 31.4333 19.4666L32.9308 19.5527C33.0216 17.9747 34.0067 16.6563 34.4212 16.1075L33.2242 15.2035Z" fill="#F4F4F4"/>
<defs>
<filter id="filter0_f_1060_1849" x="7.90314" y="9.04529" width="37.7971" height="43.291" filterUnits="userSpaceOnUse" color-interpolation-filters="sRGB">
<feFlood flood-opacity="0" result="BackgroundImageFix"/>
<feBlend mode="normal" in="SourceGraphic" in2="BackgroundImageFix" result="shape"/>
<feGaussianBlur stdDeviation="2" result="effect1_foregroundBlur_1060_1849"/>
</filter>
</defs>
</svg>
