<svg width="280" height="445" viewBox="0 0 280 445" fill="none" xmlns="http://www.w3.org/2000/svg">
<path fill-rule="evenodd" clip-rule="evenodd" d="M256.697 410.433L261.47 405.66C261.763 405.368 262.237 405.368 262.53 405.66L267.303 410.433C267.596 410.726 267.596 411.201 267.303 411.494C267.01 411.787 266.536 411.787 266.243 411.494L262.75 408.001L262.75 421C262.75 421.414 262.414 421.75 262 421.75C261.586 421.75 261.25 421.414 261.25 421L261.25 408.001L257.757 411.494C257.464 411.787 256.99 411.787 256.697 411.494C256.404 411.201 256.404 410.726 256.697 410.433Z" fill="#262C43"/>
<path d="M249.76 441V432.054H245.28V430.92H255.36V432.054H250.894V441H249.76ZM258.059 441C257.751 441 257.466 440.925 257.205 440.776C256.953 440.627 256.752 440.426 256.603 440.174C256.454 439.913 256.379 439.628 256.379 439.32V432.6C256.379 432.292 256.454 432.012 256.603 431.76C256.752 431.499 256.953 431.293 257.205 431.144C257.466 430.995 257.751 430.92 258.059 430.92H264.779C265.087 430.92 265.367 430.995 265.619 431.144C265.88 431.293 266.086 431.499 266.235 431.76C266.384 432.012 266.459 432.292 266.459 432.6V439.32C266.459 439.628 266.384 439.913 266.235 440.174C266.086 440.426 265.88 440.627 265.619 440.776C265.367 440.925 265.087 441 264.779 441H258.059ZM258.059 439.866H264.779C264.928 439.866 265.054 439.815 265.157 439.712C265.269 439.6 265.325 439.469 265.325 439.32V432.6C265.325 432.451 265.269 432.325 265.157 432.222C265.054 432.11 264.928 432.054 264.779 432.054H258.059C257.91 432.054 257.779 432.11 257.667 432.222C257.564 432.325 257.513 432.451 257.513 432.6V439.32C257.513 439.469 257.564 439.6 257.667 439.712C257.779 439.815 257.91 439.866 258.059 439.866ZM268.001 441V430.934H276.401C276.709 430.934 276.989 431.013 277.241 431.172C277.502 431.321 277.707 431.522 277.857 431.774C278.006 432.026 278.081 432.306 278.081 432.614V435.568C278.081 435.876 278.006 436.156 277.857 436.408C277.707 436.66 277.502 436.865 277.241 437.024C276.989 437.173 276.709 437.248 276.401 437.248H269.135V441H268.001ZM269.681 436.1H276.401C276.55 436.1 276.676 436.049 276.779 435.946C276.891 435.843 276.947 435.717 276.947 435.568V432.614C276.947 432.465 276.891 432.339 276.779 432.236C276.676 432.124 276.55 432.068 276.401 432.068H269.681C269.531 432.068 269.401 432.124 269.289 432.236C269.186 432.339 269.135 432.465 269.135 432.614V435.568C269.135 435.717 269.186 435.843 269.289 435.946C269.401 436.049 269.531 436.1 269.681 436.1Z" fill="#262C43"/>
<path d="M23.2892 16C21.999 16 22.0676 16 21.6308 16C20.5744 16 20.0462 16.7402 19.7821 17.4804L16.877 24.1423H32.6403M27.8312 16C29.8936 16 33.3931 16 34.8361 16C35.3121 16 36.3151 16 36.9489 17.4804C37.5828 18.9608 39.1498 22.5385 39.8541 24.1423H37.9838" stroke="#636671" stroke-linecap="square"/>
<path d="M16.8779 24.1426H15.4708C14.4587 24.1426 13.405 24.2983 12.6965 25.021C11.841 25.8936 11 27.3959 11 29.6922C11 31.0427 11 31.997 11 33.4894M40.1221 24.1426H41.3884C42.4916 24.1426 43.6607 24.2961 44.4262 25.0906C45.1211 25.8119 45.5136 26.7182 45.7328 27.5623M11 38.5867C11 39.9153 11 39.1764 11 39.9153C11.2672 40.3047 12.0687 41.0836 13.1374 41.0836C14.2061 41.0836 16.2545 41.0836 17.145 41.0836L17.6794 40.2074H20.6183M46 31.1527C46 33.9888 46 38.0581 46 39.039C46 40.2074 44.9313 40.8889 44.3969 41.0836H39.5878L39.0534 40.2074H36.1145" stroke="#636671" stroke-linecap="square"/>
<path d="M18.9751 30.6313C18.9751 29.463 16.9267 27.321 16.0361 26.25C14.9674 25.3738 13.8987 26.2918 13.3644 27.1263C11.8682 29.463 12.9191 30.826 13.6316 31.2155L18.4407 32.0917C18.6188 32.0917 18.9751 31.7997 18.9751 30.6313Z" stroke="#636671" stroke-linecap="round"/>
<path d="M37.7183 30.6313C37.7183 29.463 39.7667 27.321 40.6573 26.25C41.726 25.3738 42.7947 26.2918 43.329 27.1263C44.8252 29.463 43.7743 30.826 43.0618 31.2155L38.2526 32.0917C38.0745 32.0917 37.7183 31.7997 37.7183 30.6313Z" stroke="#636671" stroke-linecap="round"/>
<path d="M18.7083 31.8011C17.7287 30.2904 14.9679 27.7119 13.0977 27.7119" stroke="#636671" stroke-linecap="round"/>
<path d="M37.985 31.8011C38.9647 30.2904 41.7255 27.7119 43.5957 27.7119" stroke="#636671" stroke-linecap="round"/>
<path d="M22.0998 32.2363H34.6338C35.2937 32.2363 35.8761 32.6676 36.0686 33.2989L36.452 34.5564C36.7459 35.5202 36.0248 36.4939 35.0172 36.4939H21.7163C20.7087 36.4939 19.9877 35.5202 20.2815 34.5564L20.665 33.2989C20.8574 32.6676 21.4399 32.2363 22.0998 32.2363Z" stroke="#636671"/>
<path d="M20.5031 40.3467H35.2644C35.4217 40.3467 35.5699 40.2726 35.6643 40.1468L35.7617 40.0171C36.009 39.6875 35.7738 39.217 35.3618 39.217H20.4253C20.0368 39.217 19.7967 39.6407 19.9965 39.974L20.0742 40.1037C20.1646 40.2544 20.3274 40.3467 20.5031 40.3467Z" stroke="#636671"/>
<rect x="13.6406" y="19.9688" width="2.74046" height="1.3367" rx="0.5" stroke="#636671"/>
<rect x="40.3555" y="19.9688" width="2.74046" height="1.3367" rx="0.5" stroke="#636671"/>
<path d="M40.1206 20.6377H38.5176" stroke="#636671" stroke-linecap="square"/>
<path d="M16.6113 20.6377H18.4816" stroke="#636671" stroke-linecap="square"/>
<path d="M22.2188 33.7812H29.4325" stroke="#636671" stroke-linecap="round"/>
<path d="M35.314 35.2402H25.9629" stroke="#636671" stroke-linecap="round"/>
</svg>
