<svg width="58" height="58" viewBox="0 0 58 58" fill="none" xmlns="http://www.w3.org/2000/svg">
<path d="M14.6621 43.0714C13.012 41.3914 12 39.1227 12 36.6261C12 31.4483 16.3529 27.251 21.7225 27.251C23.3611 27.251 24.9051 27.6419 26.2596 28.3323C26.7143 28.564 27.1476 28.8295 27.5559 29.1253M17.6069 45.1223C18.8567 45.6861 20.2514 46.0012 21.7225 46.0012C27.092 46.0012 31.4449 41.8038 31.4449 36.6261C31.4449 34.2249 30.5088 32.0346 28.9693 30.376" stroke="#636671"/>
<path d="M41.169 13.1875C41.169 14.3957 37.532 15.375 31.4465 15.375C30.1989 15.375 28.9998 15.3339 27.8816 15.258M41.169 13.1875C41.169 11.9794 37.532 11 31.4465 11C25.361 11 20.4277 11.9794 20.4277 13.1875M41.169 13.1875V17.4317C41.169 17.8789 40.8725 18.2737 40.4383 18.381C40.1512 18.452 39.8543 18.5199 39.5486 18.5846M20.4277 13.1875V17.4858C20.4277 17.907 20.6901 18.2856 21.093 18.4083C24.8686 19.5581 30.6998 19.7206 35.6596 19.1877M20.4277 13.1875C20.4277 13.7996 21.6941 14.353 23.735 14.75" stroke="#636671"/>
<path d="M46.999 19.4376C46.999 20.6457 43.3621 21.6251 37.2766 21.6251C31.1911 21.6251 26.2578 20.6457 26.2578 19.4376V24.4376M46.999 19.4376V24.4376M46.999 19.4376C46.999 18.515 44.8781 17.7258 41.1656 17.4043M26.2578 24.4376V28.1877M26.2578 24.4376C29.8343 25.7309 35.7236 25.9835 40.8415 25.503M46.999 24.4376C46.999 25.6237 46.999 27.1634 46.999 28.8127M46.999 24.4376C45.9529 24.7343 45.7154 24.986 44.4064 25.1861M46.999 28.8127C46.999 30.2417 46.999 31.2344 46.999 32.6692M46.999 28.8127C38.6343 31.1476 33.167 30.435 29.4986 29.4377M46.999 32.6692C46.999 33.8431 46.999 36.2656 46.999 37.2503M46.999 32.6692C44.2128 33.8447 37.8335 35.399 31.119 34.1253M46.999 37.2503C46.999 38.345 46.999 39.3473 46.999 40.0269C46.999 40.4279 46.7601 40.7914 46.3872 40.9388C45.35 41.3485 44.3163 41.6779 43.2948 41.9379M46.999 37.2503C42.6177 38.821 39.2943 39.3141 35.9803 39.2457M31.119 38.8304C31.7272 38.9414 32.3763 39.0356 33.0635 39.1066M29.8756 41.9379C32.7453 42.6534 36.6208 43.0922 40.8415 42.4382" stroke="#636671"/>
<path d="M23.0332 32.3114H22.5332V32.6738L22.8777 32.7866L23.0332 32.3114ZM24.0476 32.8819L23.7146 33.2549L23.7146 33.2549L24.0476 32.8819ZM22.8079 34.5018L23.3078 34.493L23.3063 34.4075L23.2765 34.3274L22.8079 34.5018ZM22.8069 34.4993L22.3346 34.6636L22.3383 34.6737L22.8069 34.4993ZM22.7156 34.3738L23.0486 34.0008L23.0486 34.0008L22.7156 34.3738ZM20.6386 34.3738L20.3056 34.0008L20.3056 34.0009L20.6386 34.3738ZM20.5473 34.4993L21.0181 34.6677L21.0195 34.6635L20.5473 34.4993ZM20.5466 34.5013L20.0758 34.3329L20.046 34.4161L20.0466 34.5044L20.5466 34.5013ZM20.6064 34.9178L21.0587 34.7046L21.0587 34.7046L20.6064 34.9178ZM20.7575 35.0565L20.5071 35.4893L20.5071 35.4893L20.7575 35.0565ZM23.1935 35.543L23.2415 35.0453L23.2415 35.0453L23.1935 35.543ZM25.2407 37.7029L24.743 37.7511L24.743 37.7511L25.2407 37.7029ZM23.4376 40.3893L23.2675 39.9191L23.2675 39.9191L23.4376 40.3893ZM23.0332 40.5154L22.9053 40.032L22.5332 40.1305V40.5154H23.0332ZM21.0332 40.6266H21.5332V40.2015L21.1136 40.1332L21.0332 40.6266ZM20.3948 40.4679L20.5565 39.9948L20.5565 39.9948L20.3948 40.4679ZM18.1997 37.6942L18.6956 37.6299L18.6956 37.6299L18.1997 37.6942ZM19.0629 36.5739L19.1271 37.0698L19.1271 37.0698L19.0629 36.5739ZM19.4866 36.6099L19.3387 37.0876L19.787 36.2103L19.4866 36.6099ZM18.7973 35.7706L19.2496 35.5574L19.2496 35.5574L18.7973 35.7706ZM19.3066 32.8819L19.6396 33.2549L19.6396 33.2549L19.3066 32.8819ZM21.0332 32.1538L21.097 32.6497L21.5332 32.5936V32.1538H21.0332ZM20.1831 37.4371L20.679 37.3728L20.679 37.3728L20.1831 37.4371ZM19.9112 36.8713L20.1357 36.4245L19.5516 37.2187L19.9112 36.8713ZM21.0419 38.5755L20.8801 39.0486L20.8801 39.0486L21.0419 38.5755ZM22.7575 38.5085L22.5874 38.0383L22.5874 38.0383L22.7575 38.5085ZM23.1798 38.21L22.756 37.9446L22.756 37.9446L23.1798 38.21ZM23.25 37.8959L23.7477 37.8476L23.7477 37.8476L23.25 37.8959ZM23.0015 37.5338L23.0495 37.0361L23.0495 37.0361L23.0015 37.5338ZM23.5332 31.0596C23.5332 30.2311 22.8616 29.5596 22.0332 29.5596V30.5596C22.3093 30.5596 22.5332 30.7834 22.5332 31.0596H23.5332ZM23.5332 32.3114V31.0596H22.5332V32.3114H23.5332ZM24.3806 32.509C24.0488 32.2127 23.6486 31.9867 23.1887 31.8362L22.8777 32.7866C23.2178 32.8979 23.4943 33.0582 23.7146 33.2549L24.3806 32.509ZM25.3077 34.4839C25.3077 33.8344 25.0235 33.0829 24.3806 32.509L23.7146 33.2549C24.1419 33.6364 24.3077 34.1151 24.3077 34.4839H25.3077ZM23.8077 35.9839C24.6361 35.9839 25.3077 35.3123 25.3077 34.4839H24.3077C24.3077 34.7601 24.0839 34.9839 23.8077 34.9839V35.9839ZM22.3079 34.5106C22.3223 35.3268 22.9882 35.9839 23.8077 35.9839V34.9839C23.5346 34.9839 23.3126 34.7649 23.3078 34.493L22.3079 34.5106ZM22.3383 34.6737L22.3393 34.6762L23.2765 34.3274L23.2755 34.3249L22.3383 34.6737ZM22.3826 34.7468C22.381 34.7453 22.3717 34.7365 22.3602 34.7178C22.3546 34.7088 22.3492 34.6986 22.3441 34.6873C22.3417 34.6818 22.3395 34.6764 22.3376 34.6715C22.3357 34.6667 22.3344 34.6627 22.3347 34.6635L23.2792 34.335C23.2555 34.267 23.198 34.1343 23.0486 34.0008L22.3826 34.7468ZM21.6771 34.6143C22.2598 34.6143 22.4037 34.7657 22.3826 34.7468L23.0486 34.0008C22.8434 33.8177 22.441 33.6143 21.6771 33.6143V34.6143ZM20.9716 34.7468C20.9505 34.7657 21.0944 34.6143 21.6771 34.6143V33.6143C20.9133 33.6143 20.5108 33.8177 20.3056 34.0008L20.9716 34.7468ZM21.0195 34.6635C21.0198 34.6627 21.0185 34.6667 21.0166 34.6715C21.0147 34.6764 21.0126 34.6818 21.0101 34.6873C21.005 34.6986 20.9996 34.7088 20.9941 34.7178C20.9825 34.7365 20.9733 34.7453 20.9716 34.7468L20.3056 34.0009C20.1562 34.1343 20.0987 34.267 20.075 34.335L21.0195 34.6635ZM21.0174 34.6697L21.0181 34.6677L20.0765 34.3309L20.0758 34.3329L21.0174 34.6697ZM21.0587 34.7046C21.0786 34.7469 21.0479 34.7141 21.0466 34.4983L20.0466 34.5044C20.0483 34.7966 20.0882 34.9912 20.1541 35.131L21.0587 34.7046ZM21.0079 34.6237C20.9784 34.6067 20.9858 34.6066 21.006 34.6279C21.017 34.6394 21.0291 34.6544 21.0406 34.6724C21.0461 34.681 21.0505 34.6888 21.0539 34.6951C21.057 34.7011 21.059 34.7054 21.0587 34.7046L20.1541 35.131C20.1734 35.172 20.2097 35.2418 20.2817 35.3174C20.3457 35.3845 20.4221 35.4401 20.5071 35.4893L21.0079 34.6237ZM23.2415 35.0453C22.526 34.9763 22.0163 34.9026 21.6533 34.8266C21.2838 34.7493 21.0979 34.6758 21.0079 34.6237L20.5071 35.4893C20.7335 35.6203 21.0412 35.7202 21.4484 35.8054C21.8621 35.892 22.4122 35.97 23.1455 36.0407L23.2415 35.0453ZM25.7384 37.6546C25.6265 36.5002 24.7744 35.1931 23.2415 35.0453L23.1455 36.0407C24.0785 36.1307 24.6642 36.9374 24.743 37.7511L25.7384 37.6546ZM23.6076 40.8595C25.1498 40.3018 25.8647 38.958 25.7384 37.6546L24.743 37.7511C24.826 38.6072 24.3731 39.5193 23.2675 39.9191L23.6076 40.8595ZM23.1611 40.9987C23.315 40.958 23.4643 40.9113 23.6076 40.8595L23.2675 39.9191C23.1523 39.9608 23.0312 39.9987 22.9053 40.032L23.1611 40.9987ZM22.5332 40.5154V42.0174H23.5332V40.5154H22.5332ZM22.5332 42.0174C22.5332 42.2935 22.3093 42.5174 22.0332 42.5174V43.5174C22.8616 43.5174 23.5332 42.8458 23.5332 42.0174H22.5332ZM22.0332 42.5174C21.7571 42.5174 21.5332 42.2935 21.5332 42.0174H20.5332C20.5332 42.8458 21.2048 43.5174 22.0332 43.5174V42.5174ZM21.5332 42.0174V40.6266H20.5332V42.0174H21.5332ZM20.233 40.941C20.4703 41.0221 20.7115 41.0808 20.9528 41.1201L21.1136 40.1332C20.9238 40.1022 20.7372 40.0566 20.5565 39.9948L20.233 40.941ZM17.7039 37.7585C17.9235 39.4532 18.9612 40.5061 20.233 40.941L20.5565 39.9948C19.6231 39.6755 18.8634 38.9247 18.6956 37.6299L17.7039 37.7585ZM18.9986 36.0781C18.177 36.1846 17.5974 36.9369 17.7039 37.7585L18.6956 37.6299C18.6601 37.3561 18.8533 37.1053 19.1271 37.0698L18.9986 36.0781ZM19.6344 36.1323C19.4343 36.0703 19.2182 36.0496 18.9986 36.0781L19.1271 37.0698C19.2016 37.0601 19.273 37.0672 19.3387 37.0876L19.6344 36.1323ZM18.3451 35.9838C18.5441 36.406 18.8338 36.7448 19.1862 37.0096L19.787 36.2103C19.5551 36.0359 19.3743 35.8219 19.2496 35.5574L18.3451 35.9838ZM18.0465 34.4839C18.0465 34.9406 18.1029 35.4701 18.3451 35.9838L19.2496 35.5574C19.0949 35.2292 19.0465 34.8643 19.0465 34.4839H18.0465ZM18.9736 32.509C18.3308 33.0829 18.0465 33.8344 18.0465 34.4839H19.0465C19.0465 34.1151 19.2123 33.6364 19.6396 33.2549L18.9736 32.509ZM20.9694 31.6579C20.1646 31.7614 19.4887 32.0491 18.9736 32.509L19.6396 33.2549C19.9788 32.952 20.4558 32.7322 21.097 32.6497L20.9694 31.6579ZM20.5332 31.0596V32.1538H21.5332V31.0596H20.5332ZM22.0332 29.5596C21.2048 29.5596 20.5332 30.2311 20.5332 31.0596H21.5332C21.5332 30.7834 21.7571 30.5596 22.0332 30.5596V29.5596ZM20.679 37.3728C20.636 37.0411 20.487 36.7477 20.2707 36.5239L19.5516 37.2187C19.6236 37.2933 19.6728 37.39 19.6873 37.5014L20.679 37.3728ZM21.2037 38.1024C21.052 38.0505 20.9469 37.9831 20.8704 37.8919C20.7942 37.8009 20.7147 37.6484 20.679 37.3728L19.6873 37.5014C19.7418 37.9224 19.8796 38.2666 20.1041 38.5343C20.3283 38.8018 20.6075 38.9553 20.8801 39.0486L21.2037 38.1024ZM22.5874 38.0383C22.1215 38.2068 21.5743 38.2291 21.2037 38.1024L20.8801 39.0486C21.5122 39.2647 22.2982 39.2063 22.9275 38.9787L22.5874 38.0383ZM22.756 37.9446C22.7589 37.9401 22.7556 37.9476 22.7362 37.9628C22.7157 37.9789 22.6714 38.0079 22.5874 38.0383L22.9275 38.9787C23.2777 38.8521 23.4853 38.6641 23.6036 38.4753L22.756 37.9446ZM22.7524 37.9441C22.7531 37.9514 22.7523 37.9539 22.7526 37.9525C22.7529 37.951 22.7539 37.9479 22.756 37.9446L23.6036 38.4753C23.7236 38.2836 23.7686 38.0635 23.7477 37.8476L22.7524 37.9441ZM22.9535 38.0315C22.916 38.0278 22.8882 38.0202 22.8719 38.0149C22.8538 38.0091 22.8392 38.0026 22.8275 37.9965C22.8039 37.9842 22.786 37.9701 22.7728 37.9562C22.7411 37.9228 22.7486 37.9046 22.7524 37.9441L23.7477 37.8476C23.6997 37.3525 23.3621 37.0662 23.0495 37.0361L22.9535 38.0315ZM19.6867 37.3181C20.5241 37.7389 21.6625 37.907 22.9535 38.0315L23.0495 37.0361C21.743 36.9101 20.784 36.7503 20.1357 36.4245L19.6867 37.3181Z" fill="#636671"/>
</svg>
